MozillaHeadline-CondensedExtraLight.ufo
<glyph name="numbersign" format="1">
  <advance width="465"/>
  <unicode hex="0023"/>
  <outline>
    <contour>
      <point x="79" y="0" type="line"/>
      <point x="129" y="0" type="line"/>
      <point x="216" y="690" type="line"/>
      <point x="166" y="690" type="line"/>
    </contour>
    <contour>
      <point x="249" y="0" type="line"/>
      <point x="299" y="0" type="line"/>
      <point x="386" y="690" type="line"/>
      <point x="336" y="690" type="line"/>
    </contour>
    <contour>
      <point x="62" y="438" type="line"/>
      <point x="429" y="438" type="line"/>
      <point x="429" y="487" type="line"/>
      <point x="62" y="487" type="line"/>
    </contour>
    <contour>
      <point x="36" y="203" type="line"/>
      <point x="402" y="203" type="line"/>
      <point x="402" y="252" type="line"/>
      <point x="36" y="252" type="line"/>
    </contour>
  </outline>
</glyph>
<glyph name="dollar" format="1">
  <advance width="433"/>
  <unicode hex="0024"/>
  <outline>
    <contour>
      <point x="216" y="-5" type="curve" smooth="yes"/>
      <point x="329" y="-5"/>
      <point x="388" y="57"/>
      <point x="388" y="175" type="curve" smooth="yes"/>
      <point x="388" y="269"/>
      <point x="356" y="313"/>
      <point x="272" y="354" type="curve" smooth="yes"/>
      <point x="188" y="390" type="line" smooth="yes"/>
      <point x="127" y="418"/>
      <point x="104" y="450"/>
      <point x="104" y="505" type="curve" smooth="yes"/>
      <point x="104" y="527" type="line" smooth="yes"/>
      <point x="104" y="603"/>
      <point x="143" y="641"/>
      <point x="216" y="641" type="curve" smooth="yes"/>
      <point x="297" y="641"/>
      <point x="331" y="592"/>
      <point x="331" y="479" type="curve" smooth="yes"/>
      <point x="331" y="459" type="line"/>
      <point x="390" y="459" type="line"/>
      <point x="379" y="635"/>
      <point x="329" y="695"/>
      <point x="216" y="695" type="curve" smooth="yes"/>
      <point x="104" y="695"/>
      <point x="44" y="633"/>
      <point x="44" y="515" type="curve" smooth="yes"/>
      <point x="44" y="420"/>
      <point x="77" y="376"/>
      <point x="159" y="336" type="curve" smooth="yes"/>
      <point x="243" y="300" type="line" smooth="yes"/>
      <point x="305" y="271"/>
      <point x="329" y="239"/>
      <point x="329" y="185" type="curve" smooth="yes"/>
      <point x="329" y="163" type="line" smooth="yes"/>
      <point x="329" y="87"/>
      <point x="290" y="49"/>
      <point x="216" y="49" type="curve" smooth="yes"/>
      <point x="136" y="49"/>
      <point x="102" y="97"/>
      <point x="102" y="209" type="curve" smooth="yes"/>
      <point x="102" y="231" type="line"/>
      <point x="41" y="231" type="line"/>
      <point x="52" y="55"/>
      <point x="102" y="-5"/>
    </contour>
    <contour>
      <point x="189" y="-92" type="line"/>
      <point x="242" y="-92" type="line"/>
      <point x="242" y="24" type="line"/>
      <point x="189" y="24" type="line"/>
    </contour>
    <contour>
      <point x="190" y="661" type="line"/>
      <point x="243" y="661" type="line"/>
      <point x="243" y="782" type="line"/>
      <point x="190" y="782" type="line"/>
    </contour>
  </outline>
</glyph>
<glyph name="parenleft" format="1">
  <advance width="233"/>
  <unicode hex="0028"/>
  <outline>
    <contour>
      <point x="164" y="-92" type="curve"/>
      <point x="219" y="-92" type="line"/>
      <point x="134" y="41"/>
      <point x="102" y="154"/>
      <point x="102" y="310" type="curve" smooth="yes"/>
      <point x="102" y="380" type="line" smooth="yes"/>
      <point x="102" y="536"/>
      <point x="134" y="649"/>
      <point x="219" y="782" type="curve"/>
      <point x="164" y="782" type="line"/>
      <point x="83" y="672"/>
      <point x="44" y="530"/>
      <point x="44" y="345" type="curve" smooth="yes"/>
      <point x="44" y="160"/>
      <point x="83" y="18"/>
    </contour>
  </outline>
</glyph>
<glyph name="parenright" format="1">
  <advance width="233"/>
  <unicode hex="0029"/>
  <outline>
    <contour>
      <point x="68" y="782" type="curve"/>
      <point x="14" y="782" type="line"/>
      <point x="99" y="649"/>
      <point x="131" y="536"/>
      <point x="131" y="380" type="curve" smooth="yes"/>
      <point x="131" y="310" type="line" smooth="yes"/>
      <point x="131" y="154"/>
      <point x="99" y="41"/>
      <point x="14" y="-92" type="curve"/>
      <point x="68" y="-92" type="line"/>
      <point x="150" y="18"/>
      <point x="188" y="160"/>
      <point x="188" y="345" type="curve" smooth="yes"/>
      <point x="188" y="530"/>
      <point x="150" y="672"/>
    </contour>
  </outline>
</glyph>
<glyph name="asterisk" format="1">
  <advance width="369"/>
  <unicode hex="002A"/>
  <outline>
    <contour>
      <point x="49" y="574" type="line"/>
      <point x="101" y="557" type="line"/>
      <point x="156" y="553" type="line"/>
      <point x="158" y="546" type="line"/>
      <point x="116" y="509" type="line"/>
      <point x="84" y="465" type="line"/>
      <point x="126" y="434" type="line"/>
      <point x="158" y="479" type="line"/>
      <point x="180" y="530" type="line"/>
      <point x="188" y="530" type="line"/>
      <point x="209" y="478" type="line"/>
      <point x="240" y="434" type="line"/>
      <point x="282" y="465" type="line"/>
      <point x="250" y="508" type="line"/>
      <point x="208" y="546" type="line"/>
      <point x="210" y="553" type="line"/>
      <point x="266" y="556" type="line"/>
      <point x="319" y="573" type="line"/>
      <point x="302" y="622" type="line"/>
      <point x="250" y="606" type="line"/>
      <point x="203" y="577" type="line"/>
      <point x="197" y="581" type="line"/>
      <point x="210" y="635" type="line"/>
      <point x="210" y="690" type="line"/>
      <point x="158" y="690" type="line"/>
      <point x="158" y="635" type="line"/>
      <point x="171" y="581" type="line"/>
      <point x="165" y="577" type="line"/>
      <point x="118" y="607" type="line"/>
      <point x="65" y="623" type="line"/>
    </contour>
  </outline>
</glyph>
<glyph name="plus" format="1">
  <advance width="384"/>
  <unicode hex="002B"/>
  <outline>
    <contour>
      <point x="166" y="170" type="line"/>
      <point x="217" y="170" type="line"/>
      <point x="217" y="504" type="line"/>
      <point x="166" y="504" type="line"/>
    </contour>
    <contour>
      <point x="33" y="313" type="line"/>
      <point x="350" y="313" type="line"/>
      <point x="350" y="361" type="line"/>
      <point x="33" y="361" type="line"/>
    </contour>
  </outline>
</glyph>
<glyph name="period" format="1">
  <advance width="191"/>
  <unicode hex="002E"/>
  <outline>
    <contour>
      <point x="57" y="0" type="line"/>
      <point x="134" y="0" type="line"/>
      <point x="134" y="76" type="line"/>
      <point x="57" y="76" type="line"/>
    </contour>
  </outline>
</glyph>
<glyph name="zero" format="1">
  <advance width="468"/>
  <unicode hex="0030"/>
  <outline>
    <contour>
      <point x="234" y="-10" type="curve" smooth="yes"/>
      <point x="366" y="-10"/>
      <point x="417" y="77"/>
      <point x="417" y="345" type="curve" smooth="yes"/>
      <point x="417" y="613"/>
      <point x="366" y="700"/>
      <point x="234" y="700" type="curve" smooth="yes"/>
      <point x="102" y="700"/>
      <point x="51" y="613"/>
      <point x="51" y="345" type="curve" smooth="yes"/>
      <point x="51" y="77"/>
      <point x="102" y="-10"/>
    </contour>
    <contour>
      <point x="234" y="44" type="curve" smooth="yes"/>
      <point x="150" y="44"/>
      <point x="114" y="99"/>
      <point x="114" y="232" type="curve" smooth="yes"/>
      <point x="114" y="458" type="line" smooth="yes"/>
      <point x="114" y="591"/>
      <point x="150" y="646"/>
      <point x="234" y="646" type="curve" smooth="yes"/>
      <point x="318" y="646"/>
      <point x="354" y="591"/>
      <point x="354" y="458" type="curve" smooth="yes"/>
      <point x="354" y="232" type="line" smooth="yes"/>
      <point x="354" y="99"/>
      <point x="318" y="44"/>
    </contour>
    <contour>
      <point x="120" y="64" type="line"/>
      <point x="163" y="51" type="line"/>
      <point x="348" y="626" type="line"/>
      <point x="305" y="639" type="line"/>
    </contour>
  </outline>
</glyph>
<glyph name="one" format="1">
  <advance width="334"/>
  <unicode hex="0031"/>
  <outline>
    <contour>
      <point x="36" y="0" type="line"/>
      <point x="318" y="0" type="line"/>
      <point x="318" y="51" type="line"/>
      <point x="207" y="51" type="line"/>
      <point x="207" y="690" type="line"/>
      <point x="171" y="690" type="line"/>
      <point x="37" y="621" type="line"/>
      <point x="37" y="568" type="line"/>
      <point x="147" y="624" type="line"/>
      <point x="147" y="51" type="line"/>
      <point x="36" y="51" type="line"/>
    </contour>
  </outline>
</glyph>
<glyph name="six" format="1">
  <advance width="450"/>
  <unicode hex="0036"/>
  <outline>
    <contour>
      <point x="229" y="-10" type="curve" smooth="yes"/>
      <point x="345" y="-10"/>
      <point x="403" y="61"/>
      <point x="403" y="223" type="curve" smooth="yes"/>
      <point x="403" y="378"/>
      <point x="348" y="449"/>
      <point x="247" y="449" type="curve" smooth="yes"/>
      <point x="185" y="449"/>
      <point x="145" y="423"/>
      <point x="125" y="370" type="curve"/>
      <point x="108" y="370" type="line"/>
      <point x="114" y="428"/>
      <point x="117" y="459"/>
      <point x="117" y="488" type="curve" smooth="yes"/>
      <point x="117" y="496" type="line" smooth="yes"/>
      <point x="117" y="596"/>
      <point x="155" y="645"/>
      <point x="227" y="645" type="curve" smooth="yes"/>
      <point x="300" y="645"/>
      <point x="333" y="591"/>
      <point x="333" y="506" type="curve" smooth="yes"/>
      <point x="333" y="506" type="line"/>
      <point x="392" y="506" type="line"/>
      <point x="377" y="648"/>
      <point x="328" y="700"/>
      <point x="227" y="700" type="curve" smooth="yes"/>
      <point x="98" y="700"/>
      <point x="52" y="616"/>
      <point x="52" y="345" type="curve" smooth="yes"/>
      <point x="52" y="73"/>
      <point x="99" y="-10"/>
    </contour>
    <contour>
      <point x="230" y="45" type="curve" smooth="yes"/>
      <point x="154" y="45"/>
      <point x="119" y="94"/>
      <point x="119" y="210" type="curve" smooth="yes"/>
      <point x="119" y="232" type="line" smooth="yes"/>
      <point x="119" y="348"/>
      <point x="154" y="397"/>
      <point x="230" y="397" type="curve" smooth="yes"/>
      <point x="307" y="397"/>
      <point x="341" y="349"/>
      <point x="341" y="232" type="curve" smooth="yes"/>
      <point x="341" y="210" type="line" smooth="yes"/>
      <point x="341" y="93"/>
      <point x="307" y="45"/>
    </contour>
  </outline>
</glyph>
<glyph name="seven" format="1">
  <advance width="390"/>
  <unicode hex="0037"/>
  <outline>
    <contour>
      <point x="92" y="0" type="line"/>
      <point x="156" y="0" type="line"/>
      <point x="361" y="639" type="line"/>
      <point x="361" y="690" type="line"/>
      <point x="39" y="690" type="line"/>
      <point x="39" y="494" type="line"/>
      <point x="91" y="494" type="line"/>
      <point x="91" y="639" type="line"/>
      <point x="299" y="639" type="line"/>
    </contour>
  </outline>
</glyph>
<glyph name="less" format="1">
  <advance width="384"/>
  <unicode hex="003C"/>
  <outline>
    <contour>
      <point x="346" y="508" type="line"/>
      <point x="28" y="372" type="line"/>
      <point x="28" y="302" type="line"/>
      <point x="346" y="166" type="line"/>
      <point x="346" y="219" type="line"/>
      <point x="82" y="328" type="line"/>
      <point x="82" y="346" type="line"/>
      <point x="346" y="455" type="line"/>
    </contour>
  </outline>
</glyph>
<glyph name="greater" format="1">
  <advance width="384"/>
  <unicode hex="003E"/>
  <outline>
    <contour>
      <point x="38" y="166" type="line"/>
      <point x="355" y="302" type="line"/>
      <point x="355" y="372" type="line"/>
      <point x="38" y="508" type="line"/>
      <point x="38" y="455" type="line"/>
      <point x="302" y="346" type="line"/>
      <point x="302" y="328" type="line"/>
      <point x="38" y="219" type="line"/>
    </contour>
  </outline>
</glyph>
<glyph name="B" format="1">
  <advance width="456"/>
  <unicode hex="0042"/>
  <outline>
    <contour>
      <point x="77" y="0" type="line"/>
      <point x="260" y="0" type="line" smooth="yes"/>
      <point x="360" y="0"/>
      <point x="409" y="63"/>
      <point x="409" y="189" type="curve" smooth="yes"/>
      <point x="409" y="289"/>
      <point x="380" y="335"/>
      <point x="315" y="343" type="curve"/>
      <point x="315" y="361" type="line"/>
      <point x="377" y="369"/>
      <point x="404" y="410"/>
      <point x="404" y="508" type="curve" smooth="yes"/>
      <point x="404" y="633"/>
      <point x="356" y="690"/>
      <point x="256" y="690" type="curve" smooth="yes"/>
      <point x="17" y="690" type="line"/>
      <point x="17" y="639" type="line"/>
      <point x="77" y="639" type="line"/>
    </contour>
    <contour>
      <point x="255" y="51" type="curve" smooth="yes"/>
      <point x="137" y="51" type="line"/>
      <point x="137" y="328" type="line"/>
      <point x="255" y="328" type="line" smooth="yes"/>
      <point x="317" y="328"/>
      <point x="347" y="294"/>
      <point x="347" y="223" type="curve" smooth="yes"/>
      <point x="347" y="155" type="line" smooth="yes"/>
      <point x="347" y="85"/>
      <point x="317" y="51"/>
    </contour>
    <contour>
      <point x="252" y="376" type="curve" smooth="yes"/>
      <point x="137" y="376" type="line"/>
      <point x="137" y="639" type="line"/>
      <point x="252" y="639" type="line" smooth="yes"/>
      <point x="313" y="639"/>
      <point x="342" y="606"/>
      <point x="342" y="537" type="curve" smooth="yes"/>
      <point x="342" y="479" type="line" smooth="yes"/>
      <point x="342" y="410"/>
      <point x="313" y="376"/>
    </contour>
  </outline>
</glyph>
<glyph name="C" format="1">
  <advance width="459"/>
  <unicode hex="0043"/>
  <outline>
    <contour>
      <point x="233" y="-10" type="curve" smooth="yes"/>
      <point x="348" y="-10"/>
      <point x="403" y="60"/>
      <point x="412" y="245" type="curve"/>
      <point x="352" y="245" type="line"/>
      <point x="352" y="213" type="line" smooth="yes"/>
      <point x="352" y="101"/>
      <point x="317" y="45"/>
      <point x="233" y="45" type="curve" smooth="yes"/>
      <point x="148" y="45"/>
      <point x="112" y="101"/>
      <point x="112" y="236" type="curve" smooth="yes"/>
      <point x="112" y="454" type="line" smooth="yes"/>
      <point x="112" y="589"/>
      <point x="148" y="645"/>
      <point x="233" y="645" type="curve" smooth="yes"/>
      <point x="317" y="645"/>
      <point x="352" y="590"/>
      <point x="352" y="479" type="curve" smooth="yes"/>
      <point x="352" y="453" type="line"/>
      <point x="412" y="453" type="line"/>
      <point x="401" y="632"/>
      <point x="347" y="700"/>
      <point x="233" y="700" type="curve" smooth="yes"/>
      <point x="102" y="700"/>
      <point x="48" y="611"/>
      <point x="48" y="345" type="curve" smooth="yes"/>
      <point x="48" y="79"/>
      <point x="102" y="-10"/>
    </contour>
    <contour>
      <point x="233" y="0" type="move" name="bottom"/>
    </contour>
    <contour>
      <point x="233" y="690" type="move" name="top"/>
    </contour>
  </outline>
</glyph>
<glyph name="F" format="1">
  <advance width="413"/>
  <unicode hex="0046"/>
  <outline>
    <contour>
      <point x="77" y="0" type="line"/>
      <point x="137" y="0" type="line"/>
      <point x="137" y="328" type="line"/>
      <point x="304" y="328" type="line"/>
      <point x="304" y="376" type="line"/>
      <point x="137" y="376" type="line"/>
      <point x="137" y="639" type="line"/>
      <point x="324" y="639" type="line"/>
      <point x="324" y="494" type="line"/>
      <point x="376" y="494" type="line"/>
      <point x="376" y="690" type="line"/>
      <point x="18" y="690" type="line"/>
      <point x="18" y="639" type="line"/>
      <point x="77" y="639" type="line"/>
    </contour>
  </outline>
</glyph>
<glyph name="G" format="1">
  <advance width="472"/>
  <unicode hex="0047"/>
  <outline>
    <contour>
      <point x="219" y="-10" type="curve" smooth="yes"/>
      <point x="285" y="-10"/>
      <point x="327" y="20"/>
      <point x="349" y="83" type="curve"/>
      <point x="367" y="83" type="line"/>
      <point x="367" y="0" type="line"/>
      <point x="413" y="0" type="line"/>
      <point x="413" y="349" type="line"/>
      <point x="236" y="349" type="line"/>
      <point x="236" y="300" type="line"/>
      <point x="365" y="300" type="line"/>
      <point x="355" y="315" type="line"/>
      <point x="355" y="226" type="line" smooth="yes"/>
      <point x="355" y="101"/>
      <point x="319" y="45"/>
      <point x="233" y="45" type="curve" smooth="yes"/>
      <point x="148" y="45"/>
      <point x="111" y="101"/>
      <point x="111" y="237" type="curve" smooth="yes"/>
      <point x="111" y="454" type="line" smooth="yes"/>
      <point x="111" y="589"/>
      <point x="147" y="645"/>
      <point x="232" y="645" type="curve" smooth="yes"/>
      <point x="317" y="645"/>
      <point x="349" y="589"/>
      <point x="349" y="484" type="curve" smooth="yes"/>
      <point x="349" y="477" type="line"/>
      <point x="409" y="477" type="line"/>
      <point x="395" y="638"/>
      <point x="340" y="700"/>
      <point x="232" y="700" type="curve" smooth="yes"/>
      <point x="102" y="700"/>
      <point x="47" y="611"/>
      <point x="47" y="345" type="curve" smooth="yes"/>
      <point x="47" y="83"/>
      <point x="102" y="-10"/>
    </contour>
  </outline>
</glyph>
<glyph name="H" format="1">
  <advance width="478"/>
  <unicode hex="0048"/>
  <outline>
    <contour>
      <point x="347" y="0" type="line"/>
      <point x="407" y="0" type="line"/>
      <point x="407" y="690" type="line"/>
      <point x="347" y="690" type="line"/>
    </contour>
    <contour>
      <point x="77" y="0" type="line"/>
      <point x="136" y="0" type="line"/>
      <point x="136" y="690" type="line"/>
      <point x="17" y="690" type="line"/>
      <point x="17" y="639" type="line"/>
      <point x="77" y="639" type="line"/>
    </contour>
    <contour>
      <point x="103" y="328" type="line"/>
      <point x="377" y="328" type="line"/>
      <point x="377" y="376" type="line"/>
      <point x="103" y="376" type="line"/>
    </contour>
  </outline>
</glyph>
<glyph name="I" format="1">
  <advance width="266"/>
  <unicode hex="0049"/>
  <outline>
    <contour>
      <point x="34" y="0" type="line"/>
      <point x="232" y="0" type="line"/>
      <point x="232" y="51" type="line"/>
      <point x="163" y="51" type="line"/>
      <point x="163" y="639" type="line"/>
      <point x="232" y="639" type="line"/>
      <point x="232" y="690" type="line"/>
      <point x="34" y="690" type="line"/>
      <point x="34" y="639" type="line"/>
      <point x="103" y="639" type="line"/>
      <point x="103" y="51" type="line"/>
      <point x="34" y="51" type="line"/>
    </contour>
    <contour>
      <point x="133" y="690" type="move" name="top"/>
    </contour>
  </outline>
</glyph>
<glyph name="J" format="1">
  <advance width="423"/>
  <unicode hex="004A"/>
  <outline>
    <contour>
      <point x="193" y="-10" type="curve" smooth="yes"/>
      <point x="312" y="-10"/>
      <point x="354" y="64"/>
      <point x="354" y="281" type="curve" smooth="yes"/>
      <point x="354" y="690" type="line"/>
      <point x="128" y="690" type="line"/>
      <point x="128" y="639" type="line"/>
      <point x="295" y="639" type="line"/>
      <point x="295" y="209" type="line" smooth="yes"/>
      <point x="295" y="90"/>
      <point x="267" y="45"/>
      <point x="193" y="45" type="curve" smooth="yes"/>
      <point x="118" y="45"/>
      <point x="91" y="90"/>
      <point x="91" y="207" type="curve" smooth="yes"/>
      <point x="91" y="285" type="line"/>
      <point x="31" y="285" type="line"/>
      <point x="31" y="265" type="line" smooth="yes"/>
      <point x="31" y="64"/>
      <point x="73" y="-10"/>
    </contour>
    <contour>
      <point x="249" y="690" type="move" name="top"/>
    </contour>
  </outline>
</glyph>
<glyph name="K" format="1">
  <advance width="464"/>
  <unicode hex="004B"/>
  <outline>
    <contour>
      <point x="79" y="0" type="line"/>
      <point x="138" y="0" type="line"/>
      <point x="138" y="330" type="line"/>
      <point x="198" y="330" type="line"/>
      <point x="355" y="0" type="line"/>
      <point x="456" y="0" type="line"/>
      <point x="456" y="51" type="line"/>
      <point x="397" y="51" type="line"/>
      <point x="236" y="386" type="line"/>
      <point x="238" y="335" type="line"/>
      <point x="437" y="690" type="line"/>
      <point x="369" y="690" type="line"/>
      <point x="198" y="378" type="line"/>
      <point x="138" y="378" type="line"/>
      <point x="138" y="690" type="line"/>
      <point x="19" y="690" type="line"/>
      <point x="19" y="639" type="line"/>
      <point x="79" y="639" type="line"/>
    </contour>
  </outline>
</glyph>
<glyph name="L" format="1">
  <advance width="407"/>
  <unicode hex="004C"/>
  <outline>
    <contour>
      <point x="77" y="0" type="line"/>
      <point x="370" y="0" type="line"/>
      <point x="370" y="200" type="line"/>
      <point x="318" y="200" type="line"/>
      <point x="318" y="51" type="line"/>
      <point x="137" y="51" type="line"/>
      <point x="137" y="639" type="line"/>
      <point x="196" y="639" type="line"/>
      <point x="196" y="690" type="line"/>
      <point x="18" y="690" type="line"/>
      <point x="18" y="639" type="line"/>
      <point x="77" y="639" type="line"/>
    </contour>
  </outline>
</glyph>
<glyph name="R" format="1">
  <advance width="466"/>
  <unicode hex="0052"/>
  <outline>
    <contour>
      <point x="77" y="0" type="line"/>
      <point x="136" y="0" type="line"/>
      <point x="136" y="325" type="line"/>
      <point x="240" y="325" type="line" smooth="yes"/>
      <point x="302" y="325"/>
      <point x="331" y="292"/>
      <point x="331" y="222" type="curve" smooth="yes"/>
      <point x="331" y="0" type="line"/>
      <point x="449" y="0" type="line"/>
      <point x="449" y="51" type="line"/>
      <point x="391" y="51" type="line"/>
      <point x="391" y="211" type="line" smooth="yes"/>
      <point x="391" y="294"/>
      <point x="366" y="333"/>
      <point x="313" y="340" type="curve"/>
      <point x="313" y="358" type="line"/>
      <point x="379" y="366"/>
      <point x="407" y="407"/>
      <point x="407" y="507" type="curve" smooth="yes"/>
      <point x="407" y="632"/>
      <point x="359" y="690"/>
      <point x="259" y="690" type="curve" smooth="yes"/>
      <point x="17" y="690" type="line"/>
      <point x="17" y="639" type="line"/>
      <point x="77" y="639" type="line"/>
    </contour>
    <contour>
      <point x="255" y="374" type="curve" smooth="yes"/>
      <point x="136" y="374" type="line"/>
      <point x="136" y="639" type="line"/>
      <point x="255" y="639" type="line" smooth="yes"/>
      <point x="316" y="639"/>
      <point x="346" y="605"/>
      <point x="346" y="535" type="curve" smooth="yes"/>
      <point x="346" y="478" type="line" smooth="yes"/>
      <point x="346" y="408"/>
      <point x="316" y="374"/>
    </contour>
  </outline>
</glyph>
<glyph name="S" format="1">
  <advance width="436"/>
  <unicode hex="0053"/>
  <outline>
    <contour>
      <point x="218" y="-10" type="curve" smooth="yes"/>
      <point x="331" y="-10"/>
      <point x="391" y="55"/>
      <point x="391" y="175" type="curve" smooth="yes"/>
      <point x="391" y="269"/>
      <point x="358" y="313"/>
      <point x="274" y="354" type="curve" smooth="yes"/>
      <point x="190" y="390" type="line" smooth="yes"/>
      <point x="129" y="418"/>
      <point x="106" y="450"/>
      <point x="106" y="505" type="curve" smooth="yes"/>
      <point x="106" y="527" type="line" smooth="yes"/>
      <point x="106" y="605"/>
      <point x="145" y="645"/>
      <point x="218" y="645" type="curve" smooth="yes"/>
      <point x="299" y="645"/>
      <point x="333" y="594"/>
      <point x="333" y="479" type="curve" smooth="yes"/>
      <point x="333" y="459" type="line"/>
      <point x="392" y="459" type="line"/>
      <point x="382" y="636"/>
      <point x="332" y="700"/>
      <point x="218" y="700" type="curve" smooth="yes"/>
      <point x="106" y="700"/>
      <point x="47" y="635"/>
      <point x="47" y="515" type="curve" smooth="yes"/>
      <point x="47" y="420"/>
      <point x="79" y="376"/>
      <point x="161" y="336" type="curve" smooth="yes"/>
      <point x="245" y="300" type="line" smooth="yes"/>
      <point x="307" y="271"/>
      <point x="331" y="239"/>
      <point x="331" y="185" type="curve" smooth="yes"/>
      <point x="331" y="163" type="line" smooth="yes"/>
      <point x="331" y="85"/>
      <point x="292" y="45"/>
      <point x="218" y="45" type="curve" smooth="yes"/>
      <point x="138" y="45"/>
      <point x="104" y="95"/>
      <point x="104" y="209" type="curve" smooth="yes"/>
      <point x="104" y="231" type="line"/>
      <point x="44" y="231" type="line"/>
      <point x="54" y="54"/>
      <point x="104" y="-10"/>
    </contour>
    <contour>
      <point x="214" y="690" type="move" name="top"/>
    </contour>
  </outline>
</glyph>
<glyph name="U" format="1">
  <advance width="484"/>
  <unicode hex="0055"/>
  <outline>
    <contour>
      <point x="216" y="-10" type="curve" smooth="yes"/>
      <point x="280" y="-10"/>
      <point x="320" y="17"/>
      <point x="341" y="78" type="curve"/>
      <point x="359" y="78" type="line"/>
      <point x="359" y="45" type="line" smooth="yes"/>
      <point x="359" y="15"/>
      <point x="375" y="0"/>
      <point x="404" y="0" type="curve" smooth="yes"/>
      <point x="466" y="0" type="line"/>
      <point x="466" y="51" type="line"/>
      <point x="407" y="51" type="line"/>
      <point x="407" y="690" type="line"/>
      <point x="347" y="690" type="line"/>
      <point x="347" y="195" type="line" smooth="yes"/>
      <point x="347" y="88"/>
      <point x="315" y="45"/>
      <point x="240" y="45" type="curve" smooth="yes"/>
      <point x="165" y="45"/>
      <point x="133" y="88"/>
      <point x="133" y="195" type="curve" smooth="yes"/>
      <point x="133" y="690" type="line"/>
      <point x="14" y="690" type="line"/>
      <point x="14" y="639" type="line"/>
      <point x="73" y="639" type="line"/>
      <point x="73" y="180" type="line" smooth="yes"/>
      <point x="73" y="52"/>
      <point x="121" y="-10"/>
    </contour>
    <contour>
      <point x="240" y="690" type="move" name="top"/>
    </contour>
  </outline>
</glyph>
<glyph name="W" format="1">
  <advance width="666"/>
  <unicode hex="0057"/>
  <outline>
    <contour>
      <point x="136" y="0" type="line"/>
      <point x="244" y="0" type="line"/>
      <point x="324" y="492" type="line"/>
      <point x="342" y="492" type="line"/>
      <point x="422" y="0" type="line"/>
      <point x="530" y="0" type="line"/>
      <point x="643" y="690" type="line"/>
      <point x="583" y="690" type="line"/>
      <point x="483" y="55" type="line"/>
      <point x="465" y="55" type="line"/>
      <point x="362" y="690" type="line"/>
      <point x="306" y="690" type="line"/>
      <point x="203" y="55" type="line"/>
      <point x="185" y="55" type="line"/>
      <point x="85" y="690" type="line"/>
      <point x="23" y="690" type="line"/>
    </contour>
  </outline>
</glyph>
<glyph name="X" format="1">
  <advance width="468"/>
  <unicode hex="0058"/>
  <outline>
    <contour>
      <point x="25" y="0" type="line"/>
      <point x="131" y="0" type="line"/>
      <point x="224" y="327" type="line"/>
      <point x="242" y="327" type="line"/>
      <point x="336" y="0" type="line"/>
      <point x="443" y="0" type="line"/>
      <point x="443" y="51" type="line"/>
      <point x="384" y="51" type="line"/>
      <point x="289" y="375" type="line"/>
      <point x="290" y="342" type="line"/>
      <point x="379" y="639" type="line"/>
      <point x="438" y="639" type="line"/>
      <point x="438" y="690" type="line"/>
      <point x="334" y="690" type="line"/>
      <point x="244" y="381" type="line"/>
      <point x="226" y="381" type="line"/>
      <point x="137" y="690" type="line"/>
      <point x="30" y="690" type="line"/>
      <point x="30" y="639" type="line"/>
      <point x="89" y="639" type="line"/>
      <point x="179" y="342" type="line"/>
      <point x="180" y="375" type="line"/>
      <point x="84" y="51" type="line"/>
      <point x="25" y="51" type="line"/>
    </contour>
  </outline>
</glyph>
<glyph name="asciicircum" format="1">
  <advance width="384"/>
  <unicode hex="005E"/>
  <outline>
    <contour>
      <point x="53" y="480" type="line"/>
      <point x="108" y="480" type="line"/>
      <point x="184" y="643" type="line"/>
      <point x="200" y="643" type="line"/>
      <point x="277" y="480" type="line"/>
      <point x="330" y="480" type="line"/>
      <point x="230" y="690" type="line"/>
      <point x="153" y="690" type="line"/>
    </contour>
  </outline>
</glyph>
<glyph name="underscore" format="1">
  <advance width="359"/>
  <unicode hex="005F"/>
  <outline>
    <contour>
      <point x="32" y="-89" type="line"/>
      <point x="327" y="-89" type="line"/>
      <point x="327" y="-40" type="line"/>
      <point x="32" y="-40" type="line"/>
    </contour>
  </outline>
</glyph>
<glyph name="a" format="1">
  <advance width="410"/>
  <unicode hex="0061"/>
  <outline>
    <contour>
      <point x="169" y="-10" type="curve" smooth="yes"/>
      <point x="229" y="-10"/>
      <point x="264" y="16"/>
      <point x="283" y="73" type="curve"/>
      <point x="301" y="73" type="line"/>
      <point x="301" y="42" type="line" smooth="yes"/>
      <point x="301" y="15"/>
      <point x="316" y="0"/>
      <point x="343" y="0" type="curve" smooth="yes"/>
      <point x="400" y="0" type="line"/>
      <point x="400" y="49" type="line"/>
      <point x="347" y="49" type="line"/>
      <point x="347" y="365" type="line" smooth="yes"/>
      <point x="347" y="486"/>
      <point x="299" y="544"/>
      <point x="200" y="544" type="curve" smooth="yes"/>
      <point x="108" y="544"/>
      <point x="62" y="495"/>
      <point x="50" y="373" type="curve"/>
      <point x="107" y="373" type="line"/>
      <point x="107" y="373" type="line"/>
      <point x="107" y="447"/>
      <point x="132" y="491"/>
      <point x="199" y="491" type="curve" smooth="yes"/>
      <point x="263" y="491"/>
      <point x="289" y="453"/>
      <point x="289" y="357" type="curve" smooth="yes"/>
      <point x="289" y="288" type="line"/>
      <point x="289" y="277" type="line"/>
      <point x="289" y="174" type="line" smooth="yes"/>
      <point x="289" y="82"/>
      <point x="260" y="43"/>
      <point x="191" y="43" type="curve" smooth="yes"/>
      <point x="130" y="43"/>
      <point x="101" y="76"/>
      <point x="101" y="146" type="curve" smooth="yes"/>
      <point x="101" y="147" type="line" smooth="yes"/>
      <point x="101" y="212"/>
      <point x="130" y="241"/>
      <point x="195" y="250" type="curve" smooth="yes"/>
      <point x="289" y="262" type="line"/>
      <point x="289" y="307" type="line"/>
      <point x="183" y="293" type="line" smooth="yes"/>
      <point x="87" y="281"/>
      <point x="41" y="233"/>
      <point x="41" y="138" type="curve" smooth="yes"/>
      <point x="41" y="42"/>
      <point x="87" y="-10"/>
    </contour>
    <contour>
      <point x="400" y="0" type="move" name="ogonek"/>
    </contour>
    <contour>
      <point x="204" y="534" type="move" name="top"/>
    </contour>
  </outline>
</glyph>
<glyph name="b" format="1">
  <advance width="432"/>
  <unicode hex="0062"/>
  <outline>
    <contour>
      <point x="243" y="-10" type="curve" smooth="yes"/>
      <point x="343" y="-10"/>
      <point x="390" y="73"/>
      <point x="390" y="267" type="curve" smooth="yes"/>
      <point x="390" y="461"/>
      <point x="343" y="544"/>
      <point x="243" y="544" type="curve" smooth="yes"/>
      <point x="187" y="544"/>
      <point x="151" y="518"/>
      <point x="131" y="463" type="curve"/>
      <point x="113" y="463" type="line"/>
      <point x="120" y="526"/>
      <point x="123" y="558"/>
      <point x="123" y="589" type="curve" smooth="yes"/>
      <point x="123" y="690" type="line"/>
      <point x="13" y="690" type="line"/>
      <point x="13" y="641" type="line"/>
      <point x="65" y="641" type="line"/>
      <point x="65" y="0" type="line"/>
      <point x="111" y="0" type="line"/>
      <point x="111" y="76" type="line"/>
      <point x="129" y="76" type="line"/>
      <point x="150" y="17"/>
      <point x="186" y="-10"/>
    </contour>
    <contour>
      <point x="226" y="43" type="curve" smooth="yes"/>
      <point x="153" y="43"/>
      <point x="123" y="92"/>
      <point x="123" y="213" type="curve" smooth="yes"/>
      <point x="123" y="321" type="line" smooth="yes"/>
      <point x="123" y="442"/>
      <point x="153" y="491"/>
      <point x="226" y="491" type="curve" smooth="yes"/>
      <point x="298" y="491"/>
      <point x="328" y="442"/>
      <point x="328" y="321" type="curve" smooth="yes"/>
      <point x="328" y="213" type="line" smooth="yes"/>
      <point x="328" y="92"/>
      <point x="298" y="43"/>
    </contour>
  </outline>
</glyph>
<glyph name="c" format="1">
  <advance width="408"/>
  <unicode hex="0063"/>
  <outline>
    <contour>
      <point x="208" y="-10" type="curve" smooth="yes"/>
      <point x="304" y="-10"/>
      <point x="355" y="49"/>
      <point x="366" y="183" type="curve"/>
      <point x="308" y="183" type="line"/>
      <point x="308" y="183" type="line"/>
      <point x="308" y="95"/>
      <point x="281" y="43"/>
      <point x="208" y="43" type="curve" smooth="yes"/>
      <point x="136" y="43"/>
      <point x="105" y="92"/>
      <point x="105" y="213" type="curve" smooth="yes"/>
      <point x="105" y="321" type="line" smooth="yes"/>
      <point x="105" y="442"/>
      <point x="136" y="491"/>
      <point x="208" y="491" type="curve" smooth="yes"/>
      <point x="281" y="491"/>
      <point x="308" y="439"/>
      <point x="308" y="359" type="curve" smooth="yes"/>
      <point x="308" y="359" type="line"/>
      <point x="366" y="359" type="line"/>
      <point x="353" y="488"/>
      <point x="302" y="544"/>
      <point x="208" y="544" type="curve" smooth="yes"/>
      <point x="96" y="544"/>
      <point x="43" y="461"/>
      <point x="43" y="267" type="curve" smooth="yes"/>
      <point x="43" y="73"/>
      <point x="96" y="-10"/>
    </contour>
    <contour>
      <point x="208" y="0" type="move" name="bottom"/>
    </contour>
    <contour>
      <point x="208" y="534" type="move" name="top"/>
    </contour>
  </outline>
</glyph>
<glyph name="d" format="1">
  <advance width="438"/>
  <unicode hex="0064"/>
  <outline>
    <contour>
      <point x="192" y="-10" type="curve" smooth="yes"/>
      <point x="248" y="-10"/>
      <point x="284" y="17"/>
      <point x="305" y="76" type="curve"/>
      <point x="323" y="76" type="line"/>
      <point x="323" y="45" type="line" smooth="yes"/>
      <point x="323" y="15"/>
      <point x="339" y="0"/>
      <point x="368" y="0" type="curve" smooth="yes"/>
      <point x="422" y="0" type="line"/>
      <point x="422" y="49" type="line"/>
      <point x="369" y="49" type="line"/>
      <point x="369" y="690" type="line"/>
      <point x="248" y="690" type="line"/>
      <point x="248" y="641" type="line"/>
      <point x="311" y="641" type="line"/>
      <point x="311" y="589" type="line" smooth="yes"/>
      <point x="311" y="558"/>
      <point x="314" y="526"/>
      <point x="321" y="463" type="curve"/>
      <point x="303" y="463" type="line"/>
      <point x="283" y="518"/>
      <point x="248" y="544"/>
      <point x="192" y="544" type="curve" smooth="yes"/>
      <point x="92" y="544"/>
      <point x="44" y="461"/>
      <point x="44" y="267" type="curve" smooth="yes"/>
      <point x="44" y="73"/>
      <point x="92" y="-10"/>
    </contour>
    <contour>
      <point x="209" y="43" type="curve" smooth="yes"/>
      <point x="136" y="43"/>
      <point x="106" y="92"/>
      <point x="106" y="213" type="curve" smooth="yes"/>
      <point x="106" y="321" type="line" smooth="yes"/>
      <point x="106" y="442"/>
      <point x="136" y="491"/>
      <point x="209" y="491" type="curve" smooth="yes"/>
      <point x="281" y="491"/>
      <point x="311" y="442"/>
      <point x="311" y="321" type="curve" smooth="yes"/>
      <point x="311" y="213" type="line" smooth="yes"/>
      <point x="311" y="92"/>
      <point x="281" y="43"/>
    </contour>
  </outline>
</glyph>
<glyph name="g" format="1">
  <advance width="407"/>
  <unicode hex="0067"/>
  <outline>
    <contour>
      <point x="47" y="-132" type="line"/>
      <point x="247" y="-132" type="line" smooth="yes"/>
      <point x="330" y="-132"/>
      <point x="375" y="-95"/>
      <point x="375" y="-25" type="curve" smooth="yes"/>
      <point x="375" y="42"/>
      <point x="333" y="79"/>
      <point x="255" y="79" type="curve" smooth="yes"/>
      <point x="164" y="79" type="line" smooth="yes"/>
      <point x="118" y="79"/>
      <point x="100" y="91"/>
      <point x="100" y="122" type="curve" smooth="yes"/>
      <point x="100" y="153"/>
      <point x="118" y="165"/>
      <point x="164" y="165" type="curve" smooth="yes"/>
      <point x="196" y="165" type="line" smooth="yes"/>
      <point x="297" y="165"/>
      <point x="351" y="228"/>
      <point x="351" y="352" type="curve" smooth="yes"/>
      <point x="351" y="479"/>
      <point x="297" y="544"/>
      <point x="196" y="544" type="curve" smooth="yes"/>
      <point x="95" y="544"/>
      <point x="40" y="479"/>
      <point x="40" y="352" type="curve" smooth="yes"/>
      <point x="40" y="265"/>
      <point x="66" y="209"/>
      <point x="112" y="184" type="curve"/>
      <point x="112" y="169" type="line"/>
      <point x="69" y="166"/>
      <point x="44" y="142"/>
      <point x="44" y="102" type="curve" smooth="yes"/>
      <point x="44" y="52"/>
      <point x="82" y="26"/>
      <point x="150" y="26" type="curve" smooth="yes"/>
      <point x="242" y="26" type="line" smooth="yes"/>
      <point x="295" y="26"/>
      <point x="315" y="11"/>
      <point x="315" y="-29" type="curve" smooth="yes"/>
      <point x="315" y="-68"/>
      <point x="295" y="-83"/>
      <point x="242" y="-83" type="curve" smooth="yes"/>
      <point x="47" y="-83" type="line"/>
    </contour>
    <contour>
      <point x="196" y="215" type="curve" smooth="yes"/>
      <point x="130" y="215"/>
      <point x="100" y="252"/>
      <point x="100" y="345" type="curve" smooth="yes"/>
      <point x="100" y="362" type="line" smooth="yes"/>
      <point x="100" y="455"/>
      <point x="130" y="492"/>
      <point x="196" y="492" type="curve" smooth="yes"/>
      <point x="262" y="492"/>
      <point x="291" y="455"/>
      <point x="291" y="362" type="curve" smooth="yes"/>
      <point x="291" y="345" type="line" smooth="yes"/>
      <point x="291" y="252"/>
      <point x="262" y="215"/>
    </contour>
    <contour>
      <point x="271" y="514" type="curve"/>
      <point x="286" y="497" type="line"/>
      <point x="286" y="522"/>
      <point x="295" y="534"/>
      <point x="316" y="534" type="curve" smooth="yes"/>
      <point x="380" y="534" type="line"/>
      <point x="380" y="583" type="line"/>
      <point x="339" y="583" type="line" smooth="yes"/>
      <point x="294" y="583"/>
      <point x="271" y="560"/>
    </contour>
  </outline>
</glyph>
<glyph name="j" format="1">
  <advance width="207"/>
  <unicode hex="006A"/>
  <outline>
    <contour>
      <point x="13" y="-132" type="line"/>
      <point x="94" y="-132" type="line" smooth="yes"/>
      <point x="123" y="-132"/>
      <point x="139" y="-117"/>
      <point x="139" y="-87" type="curve" smooth="yes"/>
      <point x="139" y="534" type="line"/>
      <point x="18" y="534" type="line"/>
      <point x="18" y="485" type="line"/>
      <point x="81" y="485" type="line"/>
      <point x="81" y="-83" type="line"/>
      <point x="13" y="-83" type="line"/>
    </contour>
    <contour>
      <point x="70" y="617" type="line"/>
      <point x="145" y="617" type="line"/>
      <point x="145" y="690" type="line"/>
      <point x="70" y="690" type="line"/>
    </contour>
  </outline>
</glyph>
<glyph name="k" format="1">
  <advance width="424"/>
  <unicode hex="006B"/>
  <outline>
    <contour>
      <point x="67" y="0" type="line"/>
      <point x="125" y="0" type="line"/>
      <point x="125" y="253" type="line"/>
      <point x="182" y="253" type="line"/>
      <point x="323" y="0" type="line"/>
      <point x="415" y="0" type="line"/>
      <point x="415" y="49" type="line"/>
      <point x="362" y="49" type="line"/>
      <point x="216" y="309" type="line"/>
      <point x="219" y="256" type="line"/>
      <point x="400" y="534" type="line"/>
      <point x="332" y="534" type="line"/>
      <point x="182" y="299" type="line"/>
      <point x="125" y="299" type="line"/>
      <point x="125" y="690" type="line"/>
      <point x="14" y="690" type="line"/>
      <point x="14" y="641" type="line"/>
      <point x="67" y="641" type="line"/>
    </contour>
  </outline>
</glyph>
<glyph name="m" format="1">
  <advance width="652"/>
  <unicode hex="006D"/>
  <outline>
    <contour>
      <point x="299" y="359" type="curve" smooth="yes"/>
      <point x="299" y="0" type="line"/>
      <point x="357" y="0" type="line"/>
      <point x="357" y="359" type="line" smooth="yes"/>
      <point x="357" y="451"/>
      <point x="382" y="491"/>
      <point x="441" y="491" type="curve" smooth="yes"/>
      <point x="500" y="491"/>
      <point x="525" y="451"/>
      <point x="525" y="359" type="curve" smooth="yes"/>
      <point x="525" y="0" type="line"/>
      <point x="635" y="0" type="line"/>
      <point x="635" y="49" type="line"/>
      <point x="583" y="49" type="line"/>
      <point x="583" y="365" type="line" smooth="yes"/>
      <point x="583" y="487"/>
      <point x="543" y="544"/>
      <point x="465" y="544" type="curve" smooth="yes"/>
      <point x="411" y="544"/>
      <point x="378" y="518"/>
      <point x="361" y="461" type="curve"/>
      <point x="344" y="461" type="line"/>
      <point x="325" y="518"/>
      <point x="292" y="544"/>
      <point x="238" y="544" type="curve" smooth="yes"/>
      <point x="187" y="544"/>
      <point x="154" y="518"/>
      <point x="136" y="461" type="curve"/>
      <point x="118" y="461" type="line"/>
      <point x="118" y="534" type="line"/>
      <point x="20" y="534" type="line"/>
      <point x="20" y="485" type="line"/>
      <point x="73" y="485" type="line"/>
      <point x="73" y="0" type="line"/>
      <point x="130" y="0" type="line"/>
      <point x="130" y="359" type="line" smooth="yes"/>
      <point x="130" y="451"/>
      <point x="156" y="491"/>
      <point x="215" y="491" type="curve" smooth="yes"/>
      <point x="274" y="491"/>
      <point x="299" y="451"/>
    </contour>
  </outline>
</glyph>
<glyph name="t" format="1">
  <advance width="263"/>
  <unicode hex="0074"/>
  <outline>
    <contour>
      <point x="130" y="0" type="curve" smooth="yes"/>
      <point x="237" y="0" type="line"/>
      <point x="237" y="49" type="line"/>
      <point x="143" y="49" type="line"/>
      <point x="143" y="634" type="line"/>
      <point x="109" y="634" type="line"/>
      <point x="85" y="534" type="line"/>
      <point x="85" y="45" type="line" smooth="yes"/>
      <point x="85" y="15"/>
      <point x="100" y="0"/>
    </contour>
    <contour>
      <point x="11" y="485" type="line"/>
      <point x="237" y="485" type="line"/>
      <point x="237" y="534" type="line"/>
      <point x="11" y="534" type="line"/>
    </contour>
  </outline>
</glyph>
<glyph name="v" format="1">
  <advance width="391"/>
  <unicode hex="0076"/>
  <outline>
    <contour>
      <point x="140" y="0" type="line"/>
      <point x="249" y="0" type="line"/>
      <point x="366" y="534" type="line"/>
      <point x="308" y="534" type="line"/>
      <point x="205" y="53" type="line"/>
      <point x="187" y="53" type="line"/>
      <point x="84" y="534" type="line"/>
      <point x="24" y="534" type="line"/>
    </contour>
  </outline>
</glyph>
<glyph name="x" format="1">
  <advance width="420"/>
  <unicode hex="0078"/>
  <outline>
    <contour>
      <point x="22" y="0" type="line"/>
      <point x="118" y="0" type="line"/>
      <point x="200" y="250" type="line"/>
      <point x="218" y="250" type="line"/>
      <point x="300" y="0" type="line"/>
      <point x="398" y="0" type="line"/>
      <point x="398" y="49" type="line"/>
      <point x="345" y="49" type="line"/>
      <point x="261" y="297" type="line"/>
      <point x="262" y="264" type="line"/>
      <point x="340" y="485" type="line"/>
      <point x="393" y="485" type="line"/>
      <point x="393" y="534" type="line"/>
      <point x="298" y="534" type="line"/>
      <point x="220" y="302" type="line"/>
      <point x="202" y="302" type="line"/>
      <point x="124" y="534" type="line"/>
      <point x="27" y="534" type="line"/>
      <point x="27" y="485" type="line"/>
      <point x="79" y="485" type="line"/>
      <point x="157" y="264" type="line"/>
      <point x="158" y="297" type="line"/>
      <point x="74" y="49" type="line"/>
      <point x="22" y="49" type="line"/>
    </contour>
  </outline>
</glyph>
<glyph name="y" format="1">
  <advance width="392"/>
  <unicode hex="0079"/>
  <outline>
    <contour>
      <point x="57" y="-132" type="line"/>
      <point x="181" y="-132" type="line" smooth="yes"/>
      <point x="210" y="-132"/>
      <point x="223" y="-116"/>
      <point x="230" y="-87" type="curve" smooth="yes"/>
      <point x="368" y="534" type="line"/>
      <point x="310" y="534" type="line"/>
      <point x="206" y="57" type="line"/>
      <point x="188" y="57" type="line"/>
      <point x="85" y="534" type="line"/>
      <point x="25" y="534" type="line"/>
      <point x="141" y="9" type="line"/>
      <point x="195" y="9" type="line"/>
      <point x="173" y="-83" type="line"/>
      <point x="57" y="-83" type="line"/>
    </contour>
    <contour>
      <point x="197" y="534" type="move" name="top"/>
    </contour>
  </outline>
</glyph>
<glyph name="z" format="1">
  <advance width="357"/>
  <unicode hex="007A"/>
  <outline>
    <contour>
      <point x="34" y="0" type="line"/>
      <point x="323" y="0" type="line"/>
      <point x="323" y="49" type="line"/>
      <point x="99" y="49" type="line"/>
      <point x="322" y="485" type="line"/>
      <point x="322" y="534" type="line"/>
      <point x="35" y="534" type="line"/>
      <point x="35" y="485" type="line"/>
      <point x="257" y="485" type="line"/>
      <point x="34" y="49" type="line"/>
    </contour>
    <contour>
      <point x="178" y="534" type="move" name="top"/>
    </contour>
  </outline>
</glyph>
<glyph name="braceleft" format="1">
  <advance width="263"/>
  <unicode hex="007B"/>
  <outline>
    <contour>
      <point x="141" y="-92" type="curve" smooth="yes"/>
      <point x="234" y="-92" type="line"/>
      <point x="234" y="-43" type="line"/>
      <point x="158" y="-43" type="line" smooth="yes"/>
      <point x="144" y="-43"/>
      <point x="137" y="-36"/>
      <point x="137" y="-22" type="curve" smooth="yes"/>
      <point x="137" y="5"/>
      <point x="162" y="233"/>
      <point x="162" y="279" type="curve" smooth="yes"/>
      <point x="162" y="315"/>
      <point x="149" y="333"/>
      <point x="118" y="337" type="curve"/>
      <point x="118" y="353" type="line"/>
      <point x="149" y="357"/>
      <point x="162" y="375"/>
      <point x="162" y="411" type="curve" smooth="yes"/>
      <point x="162" y="457"/>
      <point x="137" y="685"/>
      <point x="137" y="712" type="curve" smooth="yes"/>
      <point x="137" y="726"/>
      <point x="144" y="733"/>
      <point x="158" y="733" type="curve" smooth="yes"/>
      <point x="234" y="733" type="line"/>
      <point x="234" y="782" type="line"/>
      <point x="141" y="782" type="line" smooth="yes"/>
      <point x="102" y="782"/>
      <point x="81" y="762"/>
      <point x="81" y="722" type="curve" smooth="yes"/>
      <point x="81" y="677"/>
      <point x="108" y="455"/>
      <point x="108" y="409" type="curve" smooth="yes"/>
      <point x="108" y="381"/>
      <point x="99" y="369"/>
      <point x="77" y="369" type="curve" smooth="yes"/>
      <point x="21" y="369" type="line"/>
      <point x="21" y="321" type="line"/>
      <point x="77" y="321" type="line" smooth="yes"/>
      <point x="99" y="321"/>
      <point x="108" y="309"/>
      <point x="108" y="281" type="curve" smooth="yes"/>
      <point x="108" y="235"/>
      <point x="81" y="13"/>
      <point x="81" y="-32" type="curve" smooth="yes"/>
      <point x="81" y="-72"/>
      <point x="102" y="-92"/>
    </contour>
  </outline>
</glyph>
<glyph name="bar" format="1">
  <advance width="204"/>
  <unicode hex="007C"/>
  <outline>
    <contour>
      <point x="74" y="-92" type="line"/>
      <point x="130" y="-92" type="line"/>
      <point x="130" y="782" type="line"/>
      <point x="74" y="782" type="line"/>
    </contour>
  </outline>
</glyph>
<glyph name="exclamdown" format="1">
  <advance width="204"/>
  <unicode hex="00A1"/>
  <outline>
    <contour>
      <point x="119" y="372" type="line"/>
      <point x="84" y="372" type="line"/>
      <point x="70" y="-105" type="line"/>
      <point x="70" y="-156" type="line"/>
      <point x="133" y="-156" type="line"/>
      <point x="133" y="-105" type="line"/>
    </contour>
    <contour>
      <point x="140" y="534" type="line"/>
      <point x="63" y="534" type="line"/>
      <point x="63" y="458" type="line"/>
      <point x="140" y="458" type="line"/>
    </contour>
  </outline>
</glyph>
<glyph name="sterling" format="1">
  <advance width="433"/>
  <unicode hex="00A3"/>
  <outline>
    <contour>
      <point x="52" y="54" type="curve"/>
      <point x="52" y="0" type="line"/>
      <point x="389" y="0" type="line"/>
      <point x="389" y="55" type="line"/>
      <point x="111" y="55" type="line"/>
      <point x="154" y="88"/>
      <point x="183" y="143"/>
      <point x="183" y="206" type="curve" smooth="yes"/>
      <point x="183" y="297"/>
      <point x="129" y="405"/>
      <point x="129" y="504" type="curve" smooth="yes"/>
      <point x="129" y="536" type="line" smooth="yes"/>
      <point x="129" y="605"/>
      <point x="166" y="645"/>
      <point x="226" y="645" type="curve" smooth="yes"/>
      <point x="292" y="645"/>
      <point x="329" y="606"/>
      <point x="329" y="494" type="curve" smooth="yes"/>
      <point x="329" y="459" type="line"/>
      <point x="386" y="459" type="line"/>
      <point x="380" y="635"/>
      <point x="332" y="700"/>
      <point x="226" y="700" type="curve" smooth="yes"/>
      <point x="124" y="700"/>
      <point x="71" y="633"/>
      <point x="71" y="520" type="curve" smooth="yes"/>
      <point x="71" y="402"/>
      <point x="131" y="311"/>
      <point x="131" y="202" type="curve" smooth="yes"/>
      <point x="131" y="153"/>
      <point x="103" y="92"/>
    </contour>
    <contour>
      <point x="39" y="311" type="line"/>
      <point x="322" y="311" type="line"/>
      <point x="322" y="359" type="line"/>
      <point x="39" y="359" type="line"/>
    </contour>
  </outline>
</glyph>
<glyph name="section" format="1">
  <advance width="419"/>
  <unicode hex="00A7"/>
  <outline>
    <contour>
      <point x="210" y="-102" type="curve" smooth="yes"/>
      <point x="311" y="-102"/>
      <point x="366" y="-46"/>
      <point x="366" y="47" type="curve" smooth="yes"/>
      <point x="366" y="94"/>
      <point x="349" y="128"/>
      <point x="314" y="158" type="curve"/>
      <point x="314" y="176" type="line"/>
      <point x="357" y="200"/>
      <point x="379" y="238"/>
      <point x="379" y="286" type="curve" smooth="yes"/>
      <point x="379" y="339"/>
      <point x="349" y="379"/>
      <point x="272" y="416" type="curve" smooth="yes"/>
      <point x="189" y="451" type="line" smooth="yes"/>
      <point x="133" y="478"/>
      <point x="110" y="506"/>
      <point x="110" y="554" type="curve" smooth="yes"/>
      <point x="110" y="613"/>
      <point x="145" y="648"/>
      <point x="210" y="648" type="curve" smooth="yes"/>
      <point x="285" y="648"/>
      <point x="314" y="598"/>
      <point x="314" y="528" type="curve" smooth="yes"/>
      <point x="314" y="528" type="line"/>
      <point x="370" y="528" type="line"/>
      <point x="357" y="647"/>
      <point x="311" y="700"/>
      <point x="210" y="700" type="curve" smooth="yes"/>
      <point x="109" y="700"/>
      <point x="53" y="641"/>
      <point x="53" y="551" type="curve" smooth="yes"/>
      <point x="53" y="501"/>
      <point x="69" y="469"/>
      <point x="107" y="440" type="curve"/>
      <point x="107" y="422" type="line"/>
      <point x="65" y="398"/>
      <point x="42" y="360"/>
      <point x="42" y="312" type="curve" smooth="yes"/>
      <point x="42" y="259"/>
      <point x="72" y="219"/>
      <point x="149" y="181" type="curve" smooth="yes"/>
      <point x="232" y="146" type="line" smooth="yes"/>
      <point x="288" y="120"/>
      <point x="309" y="89"/>
      <point x="309" y="42" type="curve" smooth="yes"/>
      <point x="309" y="-17"/>
      <point x="276" y="-50"/>
      <point x="210" y="-50" type="curve" smooth="yes"/>
      <point x="132" y="-50"/>
      <point x="103" y="-6"/>
      <point x="103" y="69" type="curve" smooth="yes"/>
      <point x="103" y="69" type="line"/>
      <point x="47" y="69" type="line"/>
      <point x="59" y="-55"/>
      <point x="106" y="-102"/>
    </contour>
    <contour>
      <point x="283" y="190" type="curve"/>
      <point x="180" y="231" type="line" smooth="yes"/>
      <point x="120" y="259"/>
      <point x="99" y="287"/>
      <point x="99" y="327" type="curve" smooth="yes"/>
      <point x="99" y="362"/>
      <point x="112" y="390"/>
      <point x="138" y="408" type="curve"/>
      <point x="242" y="367" type="line" smooth="yes"/>
      <point x="302" y="339"/>
      <point x="323" y="312"/>
      <point x="323" y="271" type="curve" smooth="yes"/>
      <point x="323" y="236"/>
      <point x="309" y="208"/>
    </contour>
  </outline>
</glyph>
<glyph name="copyright" format="1">
  <advance width="672"/>
  <unicode hex="00A9"/>
  <outline>
    <contour>
      <point x="336" y="-40" type="curve" smooth="yes"/>
      <point x="521" y="-40"/>
      <point x="632" y="95"/>
      <point x="632" y="345" type="curve" smooth="yes"/>
      <point x="632" y="595"/>
      <point x="521" y="730"/>
      <point x="336" y="730" type="curve" smooth="yes"/>
      <point x="151" y="730"/>
      <point x="39" y="595"/>
      <point x="39" y="345" type="curve" smooth="yes"/>
      <point x="39" y="95"/>
      <point x="151" y="-40"/>
    </contour>
    <contour>
      <point x="336" y="11" type="curve" smooth="yes"/>
      <point x="181" y="11"/>
      <point x="94" y="130"/>
      <point x="94" y="306" type="curve" smooth="yes"/>
      <point x="94" y="384" type="line" smooth="yes"/>
      <point x="94" y="560"/>
      <point x="181" y="679"/>
      <point x="336" y="679" type="curve" smooth="yes"/>
      <point x="491" y="679"/>
      <point x="577" y="560"/>
      <point x="577" y="384" type="curve" smooth="yes"/>
      <point x="577" y="306" type="line" smooth="yes"/>
      <point x="577" y="130"/>
      <point x="491" y="11"/>
    </contour>
    <contour>
      <point x="336" y="100" type="curve" smooth="yes"/>
      <point x="421" y="100"/>
      <point x="466" y="151"/>
      <point x="476" y="273" type="curve"/>
      <point x="422" y="273" type="line"/>
      <point x="422" y="271" type="line" smooth="yes"/>
      <point x="422" y="191"/>
      <point x="398" y="150"/>
      <point x="336" y="150" type="curve" smooth="yes"/>
      <point x="274" y="150"/>
      <point x="248" y="189"/>
      <point x="248" y="287" type="curve" smooth="yes"/>
      <point x="248" y="404" type="line" smooth="yes"/>
      <point x="248" y="500"/>
      <point x="274" y="540"/>
      <point x="336" y="540" type="curve" smooth="yes"/>
      <point x="398" y="540"/>
      <point x="422" y="497"/>
      <point x="422" y="425" type="curve"/>
      <point x="422" y="425" type="line"/>
      <point x="475" y="425" type="line"/>
      <point x="464" y="542"/>
      <point x="419" y="590"/>
      <point x="336" y="590" type="curve" smooth="yes"/>
      <point x="236" y="590"/>
      <point x="191" y="521"/>
      <point x="191" y="345" type="curve" smooth="yes"/>
      <point x="191" y="169"/>
      <point x="236" y="100"/>
    </contour>
  </outline>
</glyph>
<glyph name="guillemetleft" format="1">
  <advance width="381"/>
  <unicode hex="00AB"/>
  <outline>
    <contour>
      <point x="284" y="82" type="line"/>
      <point x="339" y="82" type="line"/>
      <point x="237" y="278" type="line"/>
      <point x="237" y="290" type="line"/>
      <point x="339" y="486" type="line"/>
      <point x="284" y="486" type="line"/>
      <point x="183" y="304" type="line"/>
      <point x="183" y="264" type="line"/>
    </contour>
    <contour>
      <point x="139" y="82" type="line"/>
      <point x="194" y="82" type="line"/>
      <point x="92" y="278" type="line"/>
      <point x="92" y="290" type="line"/>
      <point x="194" y="486" type="line"/>
      <point x="139" y="486" type="line"/>
      <point x="38" y="304" type="line"/>
      <point x="38" y="264" type="line"/>
    </contour>
  </outline>
</glyph>
<glyph name="registered" format="1">
  <advance width="423"/>
  <unicode hex="00AE"/>
  <outline>
    <contour>
      <point x="212" y="293" type="curve" smooth="yes"/>
      <point x="319" y="293"/>
      <point x="384" y="368"/>
      <point x="384" y="497" type="curve" smooth="yes"/>
      <point x="384" y="625"/>
      <point x="319" y="700"/>
      <point x="212" y="700" type="curve" smooth="yes"/>
      <point x="104" y="700"/>
      <point x="39" y="625"/>
      <point x="39" y="497" type="curve" smooth="yes"/>
      <point x="39" y="368"/>
      <point x="104" y="293"/>
    </contour>
    <contour>
      <point x="246" y="382" type="line"/>
      <point x="287" y="382" type="line"/>
      <point x="243" y="497" type="line"/>
      <point x="204" y="495" type="line"/>
    </contour>
    <contour>
      <point x="212" y="331" type="curve" smooth="yes"/>
      <point x="126" y="331"/>
      <point x="82" y="381"/>
      <point x="82" y="481" type="curve" smooth="yes"/>
      <point x="82" y="513" type="line" smooth="yes"/>
      <point x="82" y="613"/>
      <point x="126" y="662"/>
      <point x="212" y="662" type="curve" smooth="yes"/>
      <point x="297" y="662"/>
      <point x="341" y="613"/>
      <point x="341" y="513" type="curve" smooth="yes"/>
      <point x="341" y="481" type="line" smooth="yes"/>
      <point x="341" y="381"/>
      <point x="297" y="331"/>
    </contour>
    <contour>
      <point x="143" y="382" type="line"/>
      <point x="182" y="382" type="line"/>
      <point x="182" y="478" type="line"/>
      <point x="220" y="478" type="line" smooth="yes"/>
      <point x="260" y="478"/>
      <point x="285" y="503"/>
      <point x="285" y="544" type="curve" smooth="yes"/>
      <point x="285" y="585"/>
      <point x="260" y="611"/>
      <point x="220" y="611" type="curve" smooth="yes"/>
      <point x="143" y="611" type="line"/>
    </contour>
    <contour>
      <point x="218" y="509" type="curve" smooth="yes"/>
      <point x="181" y="509" type="line"/>
      <point x="181" y="576" type="line"/>
      <point x="218" y="576" type="line" smooth="yes"/>
      <point x="237" y="576"/>
      <point x="247" y="567"/>
      <point x="247" y="548" type="curve" smooth="yes"/>
      <point x="247" y="537" type="line" smooth="yes"/>
      <point x="247" y="518"/>
      <point x="237" y="509"/>
    </contour>
  </outline>
</glyph>
<glyph name="degree" format="1">
  <advance width="322"/>
  <unicode hex="00B0"/>
  <outline>
    <contour>
      <point x="161" y="371" type="curve" smooth="yes"/>
      <point x="243" y="371"/>
      <point x="285" y="425"/>
      <point x="285" y="535" type="curve" smooth="yes"/>
      <point x="285" y="645"/>
      <point x="243" y="699"/>
      <point x="161" y="699" type="curve" smooth="yes"/>
      <point x="79" y="699"/>
      <point x="37" y="645"/>
      <point x="37" y="535" type="curve" smooth="yes"/>
      <point x="37" y="425"/>
      <point x="79" y="371"/>
    </contour>
    <contour>
      <point x="161" y="416" type="curve" smooth="yes"/>
      <point x="109" y="416"/>
      <point x="88" y="443"/>
      <point x="88" y="508" type="curve" smooth="yes"/>
      <point x="88" y="562" type="line" smooth="yes"/>
      <point x="88" y="627"/>
      <point x="109" y="654"/>
      <point x="161" y="654" type="curve" smooth="yes"/>
      <point x="212" y="654"/>
      <point x="234" y="627"/>
      <point x="234" y="562" type="curve" smooth="yes"/>
      <point x="234" y="508" type="line" smooth="yes"/>
      <point x="234" y="443"/>
      <point x="212" y="416"/>
    </contour>
  </outline>
</glyph>
<glyph name="threesuperior" format="1">
  <advance width="277"/>
  <unicode hex="00B3"/>
  <note>
threesuperior
</note>
  <outline>
    <contour>
      <point x="139" y="363" type="curve" smooth="yes"/>
      <point x="209" y="363"/>
      <point x="248" y="397"/>
      <point x="248" y="458" type="curve" smooth="yes"/>
      <point x="248" y="499"/>
      <point x="231" y="524"/>
      <point x="190" y="526" type="curve"/>
      <point x="190" y="538" type="line"/>
      <point x="229" y="540"/>
      <point x="247" y="562"/>
      <point x="247" y="603" type="curve" smooth="yes"/>
      <point x="247" y="662"/>
      <point x="208" y="694"/>
      <point x="139" y="694" type="curve" smooth="yes"/>
      <point x="73" y="694"/>
      <point x="39" y="663"/>
      <point x="33" y="588" type="curve"/>
      <point x="84" y="588" type="line"/>
      <point x="84" y="599" type="line" smooth="yes"/>
      <point x="84" y="634"/>
      <point x="102" y="652"/>
      <point x="139" y="652" type="curve" smooth="yes"/>
      <point x="175" y="652"/>
      <point x="194" y="636"/>
      <point x="194" y="602" type="curve" smooth="yes"/>
      <point x="194" y="601" type="line" smooth="yes"/>
      <point x="194" y="566"/>
      <point x="179" y="550"/>
      <point x="147" y="550" type="curve" smooth="yes"/>
      <point x="99" y="550" type="line"/>
      <point x="99" y="514" type="line"/>
      <point x="147" y="514" type="line" smooth="yes"/>
      <point x="179" y="514"/>
      <point x="195" y="497"/>
      <point x="195" y="463" type="curve" smooth="yes"/>
      <point x="195" y="456" type="line" smooth="yes"/>
      <point x="195" y="422"/>
      <point x="175" y="405"/>
      <point x="139" y="405" type="curve" smooth="yes"/>
      <point x="102" y="405"/>
      <point x="84" y="423"/>
      <point x="84" y="458" type="curve" smooth="yes"/>
      <point x="84" y="470" type="line"/>
      <point x="32" y="470" type="line"/>
      <point x="39" y="394"/>
      <point x="72" y="363"/>
    </contour>
  </outline>
</glyph>
<glyph name="micro" format="1">
  <advance width="438"/>
  <unicode hex="00B5"/>
  <outline>
    <contour>
      <point x="68" y="-132" type="line"/>
      <point x="126" y="-132" type="line"/>
      <point x="126" y="-55" type="line" smooth="yes"/>
      <point x="126" y="-24"/>
      <point x="123" y="8"/>
      <point x="116" y="71" type="curve"/>
      <point x="105" y="54" type="line"/>
      <point x="116" y="13"/>
      <point x="149" y="-10"/>
      <point x="195" y="-10" type="curve" smooth="yes"/>
      <point x="251" y="-10"/>
      <point x="286" y="16"/>
      <point x="306" y="73" type="curve"/>
      <point x="324" y="73" type="line"/>
      <point x="324" y="0" type="line"/>
      <point x="369" y="0" type="line"/>
      <point x="369" y="534" type="line"/>
      <point x="312" y="534" type="line"/>
      <point x="312" y="181" type="line" smooth="yes"/>
      <point x="312" y="82"/>
      <point x="285" y="43"/>
      <point x="219" y="43" type="curve" smooth="yes"/>
      <point x="153" y="43"/>
      <point x="126" y="82"/>
      <point x="126" y="181" type="curve" smooth="yes"/>
      <point x="126" y="534" type="line"/>
      <point x="68" y="534" type="line"/>
    </contour>
  </outline>
</glyph>
<glyph name="paragraph" format="1">
  <advance width="410"/>
  <unicode hex="00B6"/>
  <outline>
    <contour>
      <point x="288" y="0" type="line"/>
      <point x="340" y="0" type="line"/>
      <point x="340" y="690" type="line"/>
      <point x="195" y="690" type="line" smooth="yes"/>
      <point x="83" y="690"/>
      <point x="26" y="634"/>
      <point x="26" y="521" type="curve" smooth="yes"/>
      <point x="26" y="411"/>
      <point x="78" y="354"/>
      <point x="181" y="354" type="curve" smooth="yes"/>
      <point x="233" y="354" type="line"/>
      <point x="233" y="640" type="line"/>
      <point x="288" y="640" type="line"/>
    </contour>
  </outline>
</glyph>
<glyph name="cedilla" format="1">
  <advance width="400"/>
  <unicode hex="00B8"/>
  <outline>
    <component base="cedillacomb" identifier="5547B6DE"/>
    <contour>
      <point x="200" y="0" type="move" name="_bottom"/>
    </contour>
  </outline>
</glyph>
<glyph name="Iacute" format="1">
  <advance width="266"/>
  <unicode hex="00CD"/>
  <note>
Iacute
</note>
  <outline>
    <component base="I"/>
    <component base="acutecomb.case" xOffset="-67" yOffset="40"/>
    <contour>
      <point x="133" y="690" type="move" name="top"/>
    </contour>
  </outline>
</glyph>
<glyph name="Ntilde" format="1">
  <advance width="488"/>
  <unicode hex="00D1"/>
  <note>
Ntilde
</note>
  <outline>
    <component base="N"/>
    <component base="tildecomb.case" xOffset="47" yOffset="40"/>
    <contour>
      <point x="247" y="690" type="move" name="top"/>
    </contour>
  </outline>
</glyph>
<glyph name="Oacute" format="1">
  <advance width="475"/>
  <unicode hex="00D3"/>
  <note>
Oacute
</note>
  <outline>
    <component base="O"/>
    <component base="acutecomb.case" xOffset="34" yOffset="40"/>
    <contour>
      <point x="234" y="690" type="move" name="top"/>
    </contour>
  </outline>
</glyph>
<glyph name="multiply" format="1">
  <advance width="384"/>
  <unicode hex="00D7"/>
  <outline>
    <contour>
      <point x="81" y="192" type="line"/>
      <point x="337" y="448" type="line"/>
      <point x="302" y="482" type="line"/>
      <point x="46" y="226" type="line"/>
    </contour>
    <contour>
      <point x="302" y="192" type="line"/>
      <point x="337" y="227" type="line"/>
      <point x="81" y="482" type="line"/>
      <point x="47" y="447" type="line"/>
    </contour>
  </outline>
</glyph>
<glyph name="Oslash" format="1">
  <advance width="479"/>
  <unicode hex="00D8"/>
  <note>
Oslash
</note>
  <outline>
    <contour>
      <point x="240" y="-10" type="curve" smooth="yes"/>
      <point x="374" y="-10"/>
      <point x="429" y="79"/>
      <point x="429" y="345" type="curve" smooth="yes"/>
      <point x="429" y="611"/>
      <point x="374" y="700"/>
      <point x="240" y="700" type="curve" smooth="yes"/>
      <point x="105" y="700"/>
      <point x="50" y="611"/>
      <point x="50" y="345" type="curve" smooth="yes"/>
      <point x="50" y="79"/>
      <point x="105" y="-10"/>
    </contour>
    <contour>
      <point x="240" y="45" type="curve" smooth="yes"/>
      <point x="151" y="45"/>
      <point x="114" y="101"/>
      <point x="114" y="239" type="curve" smooth="yes"/>
      <point x="114" y="451" type="line" smooth="yes"/>
      <point x="114" y="589"/>
      <point x="151" y="645"/>
      <point x="240" y="645" type="curve" smooth="yes"/>
      <point x="328" y="645"/>
      <point x="366" y="589"/>
      <point x="366" y="451" type="curve" smooth="yes"/>
      <point x="366" y="239" type="line" smooth="yes"/>
      <point x="366" y="101"/>
      <point x="328" y="45"/>
    </contour>
    <contour>
      <point x="44" y="-10" type="line"/>
      <point x="96" y="-10" type="line"/>
      <point x="128" y="53" type="line"/>
      <point x="132" y="53" type="line"/>
      <point x="379" y="589" type="line"/>
      <point x="383" y="589" type="line"/>
      <point x="436" y="700" type="line"/>
      <point x="383" y="700" type="line"/>
      <point x="351" y="637" type="line"/>
      <point x="347" y="637" type="line"/>
      <point x="100" y="101" type="line"/>
      <point x="96" y="101" type="line"/>
    </contour>
    <contour>
      <point x="240" y="690" type="move" name="top"/>
    </contour>
  </outline>
</glyph>
<glyph name="germandbls" format="1">
  <advance width="439"/>
  <unicode hex="00DF"/>
  <note>
germandbls
</note>
  <outline>
    <contour>
      <point x="73" y="518" type="curve" smooth="yes"/>
      <point x="73" y="0" type="line"/>
      <point x="131" y="0" type="line"/>
      <point x="131" y="532" type="line" smooth="yes"/>
      <point x="131" y="606"/>
      <point x="165" y="646"/>
      <point x="230" y="646" type="curve" smooth="yes"/>
      <point x="292" y="646"/>
      <point x="326" y="608"/>
      <point x="326" y="537" type="curve" smooth="yes"/>
      <point x="326" y="486" type="line" smooth="yes"/>
      <point x="326" y="417"/>
      <point x="297" y="384"/>
      <point x="236" y="384" type="curve" smooth="yes"/>
      <point x="188" y="384" type="line"/>
      <point x="188" y="336" type="line"/>
      <point x="240" y="336" type="line" smooth="yes"/>
      <point x="306" y="336"/>
      <point x="337" y="301"/>
      <point x="337" y="230" type="curve" smooth="yes"/>
      <point x="337" y="154" type="line" smooth="yes"/>
      <point x="337" y="83"/>
      <point x="306" y="49"/>
      <point x="240" y="49" type="curve" smooth="yes"/>
      <point x="183" y="49" type="line"/>
      <point x="183" y="0" type="line"/>
      <point x="245" y="0" type="line" smooth="yes"/>
      <point x="347" y="0"/>
      <point x="397" y="63"/>
      <point x="397" y="193" type="curve" smooth="yes"/>
      <point x="397" y="296"/>
      <point x="368" y="343"/>
      <point x="300" y="351" type="curve"/>
      <point x="300" y="369" type="line"/>
      <point x="361" y="377"/>
      <point x="386" y="417"/>
      <point x="386" y="511" type="curve" smooth="yes"/>
      <point x="386" y="631"/>
      <point x="330" y="698"/>
      <point x="230" y="698" type="curve" smooth="yes"/>
      <point x="131" y="698"/>
      <point x="73" y="632"/>
    </contour>
    <contour>
      <point x="16" y="485" type="line"/>
      <point x="119" y="485" type="line"/>
      <point x="119" y="534" type="line"/>
      <point x="16" y="534" type="line"/>
    </contour>
  </outline>
</glyph>
<glyph name="ae" format="1">
  <advance width="646"/>
  <unicode hex="00E6"/>
  <note>
ae
</note>
  <outline>
    <contour>
      <point x="169" y="-10" type="curve" smooth="yes"/>
      <point x="228" y="-10"/>
      <point x="269" y="16"/>
      <point x="294" y="77" type="curve"/>
      <point x="311" y="77" type="line"/>
      <point x="334" y="18"/>
      <point x="380" y="-10"/>
      <point x="446" y="-10" type="curve" smooth="yes"/>
      <point x="537" y="-10"/>
      <point x="585" y="42"/>
      <point x="599" y="161" type="curve"/>
      <point x="543" y="161" type="line"/>
      <point x="543" y="161" type="line"/>
      <point x="543" y="95"/>
      <point x="520" y="43"/>
      <point x="446" y="43" type="curve" smooth="yes"/>
      <point x="372" y="43"/>
      <point x="342" y="93"/>
      <point x="342" y="217" type="curve" smooth="yes"/>
      <point x="342" y="318" type="line" smooth="yes"/>
      <point x="342" y="442"/>
      <point x="372" y="492"/>
      <point x="446" y="492" type="curve" smooth="yes"/>
      <point x="520" y="492"/>
      <point x="551" y="442"/>
      <point x="551" y="318" type="curve" smooth="yes"/>
      <point x="551" y="290" type="line"/>
      <point x="572" y="306" type="line"/>
      <point x="326" y="306" type="line"/>
      <point x="326" y="262" type="line"/>
      <point x="604" y="262" type="line"/>
      <point x="604" y="287" type="line" smooth="yes"/>
      <point x="604" y="467"/>
      <point x="554" y="544"/>
      <point x="446" y="544" type="curve" smooth="yes"/>
      <point x="385" y="544"/>
      <point x="344" y="520"/>
      <point x="327" y="478" type="curve"/>
      <point x="310" y="478" type="line"/>
      <point x="298" y="520"/>
      <point x="260" y="544"/>
      <point x="197" y="544" type="curve" smooth="yes"/>
      <point x="106" y="544"/>
      <point x="62" y="495"/>
      <point x="50" y="373" type="curve"/>
      <point x="106" y="373" type="line"/>
      <point x="106" y="373" type="line"/>
      <point x="106" y="447"/>
      <point x="131" y="491"/>
      <point x="196" y="491" type="curve" smooth="yes"/>
      <point x="259" y="491"/>
      <point x="284" y="453"/>
      <point x="284" y="357" type="curve" smooth="yes"/>
      <point x="284" y="288" type="line"/>
      <point x="284" y="277" type="line"/>
      <point x="284" y="174" type="line" smooth="yes"/>
      <point x="284" y="82"/>
      <point x="256" y="43"/>
      <point x="188" y="43" type="curve" smooth="yes"/>
      <point x="128" y="43"/>
      <point x="100" y="76"/>
      <point x="100" y="146" type="curve" smooth="yes"/>
      <point x="100" y="147" type="line" smooth="yes"/>
      <point x="100" y="212"/>
      <point x="128" y="242"/>
      <point x="190" y="250" type="curve" smooth="yes"/>
      <point x="284" y="262" type="line"/>
      <point x="284" y="307" type="line"/>
      <point x="178" y="293" type="line" smooth="yes"/>
      <point x="86" y="281"/>
      <point x="41" y="233"/>
      <point x="41" y="138" type="curve" smooth="yes"/>
      <point x="41" y="42"/>
      <point x="86" y="-10"/>
    </contour>
    <contour>
      <point x="313" y="534" type="move" name="top"/>
    </contour>
  </outline>
</glyph>
<glyph name="Aogonek" format="1">
  <advance width="438"/>
  <unicode hex="0104"/>
  <outline>
    <contour>
      <point x="31" y="0" type="line"/>
      <point x="91" y="0" type="line"/>
      <point x="211" y="635" type="line"/>
      <point x="229" y="635" type="line"/>
      <point x="348" y="0" type="line"/>
      <point x="410" y="0" type="line"/>
      <point x="277" y="690" type="line"/>
      <point x="164" y="690" type="line"/>
    </contour>
    <contour>
      <point x="96" y="189" type="line"/>
      <point x="343" y="189" type="line"/>
      <point x="339" y="237" type="line"/>
      <point x="101" y="237" type="line"/>
    </contour>
    <contour>
      <point x="94" y="639" type="line"/>
      <point x="193" y="639" type="line"/>
      <point x="193" y="690" type="line"/>
      <point x="94" y="690" type="line"/>
    </contour>
    <contour>
      <point x="365" y="-136" type="curve" smooth="yes"/>
      <point x="415" y="-136" type="line"/>
      <point x="415" y="-95" type="line"/>
      <point x="371" y="-95" type="line" smooth="yes"/>
      <point x="349" y="-95"/>
      <point x="338" y="-85"/>
      <point x="338" y="-68" type="curve" smooth="yes"/>
      <point x="338" y="-48"/>
      <point x="354" y="-28"/>
      <point x="410" y="0" type="curve"/>
      <point x="355" y="17" type="line"/>
      <point x="355" y="-13" type="line"/>
      <point x="312" y="-28"/>
      <point x="293" y="-48"/>
      <point x="293" y="-80" type="curve" smooth="yes"/>
      <point x="293" y="-116"/>
      <point x="318" y="-136"/>
    </contour>
    <contour>
      <point x="410" y="0" type="move" name="ogonek"/>
    </contour>
    <contour>
      <point x="218" y="690" type="move" name="top"/>
    </contour>
  </outline>
</glyph>
<glyph name="eogonek" format="1">
  <advance width="414"/>
  <unicode hex="0119"/>
  <outline>
    <contour>
      <point x="212" y="-10" type="curve" smooth="yes"/>
      <point x="304" y="-10"/>
      <point x="354" y="42"/>
      <point x="368" y="161" type="curve"/>
      <point x="311" y="161" type="line"/>
      <point x="311" y="161" type="line"/>
      <point x="311" y="95"/>
      <point x="288" y="43"/>
      <point x="212" y="43" type="curve" smooth="yes"/>
      <point x="136" y="43"/>
      <point x="105" y="93"/>
      <point x="105" y="217" type="curve" smooth="yes"/>
      <point x="105" y="318" type="line" smooth="yes"/>
      <point x="105" y="442"/>
      <point x="136" y="492"/>
      <point x="212" y="492" type="curve" smooth="yes"/>
      <point x="288" y="492"/>
      <point x="319" y="442"/>
      <point x="319" y="318" type="curve" smooth="yes"/>
      <point x="319" y="282" type="line"/>
      <point x="341" y="306" type="line"/>
      <point x="89" y="306" type="line"/>
      <point x="89" y="262" type="line"/>
      <point x="373" y="262" type="line"/>
      <point x="373" y="287" type="line" smooth="yes"/>
      <point x="373" y="467"/>
      <point x="322" y="544"/>
      <point x="212" y="544" type="curve" smooth="yes"/>
      <point x="97" y="544"/>
      <point x="43" y="461"/>
      <point x="43" y="267" type="curve" smooth="yes"/>
      <point x="43" y="73"/>
      <point x="97" y="-10"/>
    </contour>
    <contour>
      <point x="278" y="-136" type="curve" smooth="yes"/>
      <point x="333" y="-136" type="line"/>
      <point x="333" y="-95" type="line"/>
      <point x="285" y="-95" type="line" smooth="yes"/>
      <point x="263" y="-95"/>
      <point x="251" y="-85"/>
      <point x="251" y="-68" type="curve" smooth="yes"/>
      <point x="251" y="-47"/>
      <point x="269" y="-22"/>
      <point x="317" y="28" type="curve"/>
      <point x="249" y="17" type="line"/>
      <point x="249" y="-21" type="line"/>
      <point x="224" y="-32"/>
      <point x="207" y="-50"/>
      <point x="207" y="-80" type="curve" smooth="yes"/>
      <point x="207" y="-116"/>
      <point x="232" y="-136"/>
    </contour>
    <contour>
      <point x="272" y="0" type="move" name="ogonek"/>
    </contour>
    <contour>
      <point x="212" y="534" type="move" name="top"/>
    </contour>
  </outline>
</glyph>
<glyph name="idotless" format="1">
  <advance width="207"/>
  <unicode hex="0131"/>
  <outline>
    <contour>
      <point x="81" y="0" type="line"/>
      <point x="139" y="0" type="line"/>
      <point x="139" y="534" type="line"/>
      <point x="18" y="534" type="line"/>
      <point x="18" y="485" type="line"/>
      <point x="81" y="485" type="line"/>
    </contour>
    <contour>
      <point x="108" y="534" type="move" name="top"/>
    </contour>
  </outline>
</glyph>
<glyph name="IJ" format="1">
  <advance width="490"/>
  <unicode hex="0132"/>
  <outline>
    <contour>
      <point x="259" y="-10" type="curve" smooth="yes"/>
      <point x="384" y="-10"/>
      <point x="427" y="66"/>
      <point x="427" y="284" type="curve" smooth="yes"/>
      <point x="427" y="690" type="line"/>
      <point x="367" y="690" type="line"/>
      <point x="367" y="212" type="line" smooth="yes"/>
      <point x="367" y="92"/>
      <point x="339" y="45"/>
      <point x="259" y="45" type="curve" smooth="yes"/>
      <point x="181" y="45"/>
      <point x="151" y="92"/>
      <point x="151" y="210" type="curve" smooth="yes"/>
      <point x="151" y="277" type="line"/>
      <point x="91" y="277" type="line"/>
      <point x="91" y="268" type="line" smooth="yes"/>
      <point x="91" y="66"/>
      <point x="136" y="-10"/>
    </contour>
    <contour>
      <point x="34" y="333" type="line"/>
      <point x="208" y="333" type="line"/>
      <point x="208" y="382" type="line"/>
      <point x="149" y="382" type="line"/>
      <point x="149" y="639" type="line"/>
      <point x="208" y="639" type="line"/>
      <point x="208" y="690" type="line"/>
      <point x="34" y="690" type="line"/>
      <point x="34" y="639" type="line"/>
      <point x="93" y="639" type="line"/>
      <point x="93" y="382" type="line"/>
      <point x="34" y="382" type="line"/>
    </contour>
    <contour>
      <point x="260" y="639" type="line"/>
      <point x="388" y="639" type="line"/>
      <point x="388" y="690" type="line"/>
      <point x="260" y="690" type="line"/>
    </contour>
  </outline>
</glyph>
<glyph name="sacute" format="1">
  <advance width="389"/>
  <unicode hex="015B"/>
  <outline>
    <component base="s"/>
    <component base="acutecomb" xOffset="-10"/>
    <contour>
      <point x="190" y="534" type="move" name="top"/>
    </contour>
  </outline>
</glyph>
<glyph name="jdotless" format="1">
  <advance width="207"/>
  <unicode hex="0237"/>
  <outline>
    <contour>
      <point x="13" y="-132" type="line"/>
      <point x="94" y="-132" type="line" smooth="yes"/>
      <point x="123" y="-132"/>
      <point x="139" y="-117"/>
      <point x="139" y="-87" type="curve" smooth="yes"/>
      <point x="139" y="534" type="line"/>
      <point x="18" y="534" type="line"/>
      <point x="18" y="485" type="line"/>
      <point x="81" y="485" type="line"/>
      <point x="81" y="-83" type="line"/>
      <point x="13" y="-83" type="line"/>
    </contour>
    <contour>
      <point x="108" y="534" type="move" name="top"/>
    </contour>
  </outline>
</glyph>
<glyph name="circumflex" format="1">
  <advance width="400"/>
  <unicode hex="02C6"/>
  <outline>
    <component base="circumflexcomb" identifier="C5244F8A"/>
    <contour>
      <point x="200" y="534" type="move" name="_top"/>
    </contour>
  </outline>
</glyph>
<glyph name="breve" format="1">
  <advance width="400"/>
  <unicode hex="02D8"/>
  <outline>
    <contour>
      <point x="200" y="574" type="curve" smooth="yes"/>
      <point x="267" y="574"/>
      <point x="304" y="612"/>
      <point x="313" y="694" type="curve"/>
      <point x="266" y="694" type="line"/>
      <point x="266" y="694" type="line"/>
      <point x="266" y="645"/>
      <point x="242" y="618"/>
      <point x="200" y="618" type="curve" smooth="yes"/>
      <point x="158" y="618"/>
      <point x="134" y="645"/>
      <point x="134" y="694" type="curve"/>
      <point x="134" y="694" type="line"/>
      <point x="87" y="694" type="line"/>
      <point x="96" y="612"/>
      <point x="133" y="574"/>
    </contour>
    <contour>
      <point x="200" y="534" type="move" name="_top"/>
    </contour>
  </outline>
</glyph>
<glyph name="cedillacomb" format="1">
  <advance width="0"/>
  <unicode hex="0327"/>
  <note>
cedilla
</note>
  <outline>
    <contour>
      <point x="148" y="-164" type="line"/>
      <point x="218" y="-164" type="line" smooth="yes"/>
      <point x="270" y="-164"/>
      <point x="298" y="-141"/>
      <point x="298" y="-98" type="curve" smooth="yes"/>
      <point x="298" y="-56"/>
      <point x="270" y="-34"/>
      <point x="218" y="-34" type="curve" smooth="yes"/>
      <point x="199" y="-34" type="line"/>
      <point x="222" y="-53" type="line"/>
      <point x="222" y="10" type="line"/>
      <point x="178" y="10" type="line"/>
      <point x="178" y="-69" type="line"/>
      <point x="216" y="-69" type="line" smooth="yes"/>
      <point x="237" y="-69"/>
      <point x="249" y="-78"/>
      <point x="249" y="-96" type="curve" smooth="yes"/>
      <point x="249" y="-114"/>
      <point x="237" y="-123"/>
      <point x="216" y="-123" type="curve" smooth="yes"/>
      <point x="148" y="-123" type="line"/>
    </contour>
    <contour>
      <point x="200" y="0" type="move" name="_bottom"/>
    </contour>
  </outline>
</glyph>
<glyph name="pi" format="1">
  <advance width="475"/>
  <unicode hex="03C0"/>
  <outline>
    <contour>
      <point x="365" y="0" type="curve" smooth="yes"/>
      <point x="442" y="0" type="line"/>
      <point x="442" y="49" type="line"/>
      <point x="378" y="49" type="line"/>
      <point x="378" y="514" type="line"/>
      <point x="320" y="514" type="line"/>
      <point x="320" y="45" type="line" smooth="yes"/>
      <point x="320" y="15"/>
      <point x="335" y="0"/>
    </contour>
    <contour>
      <point x="84" y="0" type="line"/>
      <point x="142" y="0" type="line"/>
      <point x="142" y="514" type="line"/>
      <point x="84" y="514" type="line"/>
    </contour>
    <contour>
      <point x="20" y="485" type="line"/>
      <point x="442" y="485" type="line"/>
      <point x="442" y="534" type="line"/>
      <point x="20" y="534" type="line"/>
    </contour>
  </outline>
</glyph>
<glyph name="Germandbls" format="1">
  <advance width="470"/>
  <unicode hex="1E9E"/>
  <outline>
    <contour>
      <point x="87" y="0" type="line"/>
      <point x="147" y="0" type="line"/>
      <point x="147" y="639" type="line"/>
      <point x="348" y="639" type="line"/>
      <point x="223" y="386" type="line"/>
      <point x="223" y="337" type="line"/>
      <point x="267" y="337" type="line" smooth="yes"/>
      <point x="332" y="337"/>
      <point x="364" y="303"/>
      <point x="364" y="231" type="curve" smooth="yes"/>
      <point x="364" y="157" type="line" smooth="yes"/>
      <point x="364" y="85"/>
      <point x="332" y="51"/>
      <point x="267" y="51" type="curve" smooth="yes"/>
      <point x="202" y="51" type="line"/>
      <point x="202" y="0" type="line"/>
      <point x="271" y="0" type="line" smooth="yes"/>
      <point x="375" y="0"/>
      <point x="425" y="64"/>
      <point x="425" y="191" type="curve" smooth="yes"/>
      <point x="425" y="321"/>
      <point x="377" y="385"/>
      <point x="282" y="385" type="curve"/>
      <point x="254" y="385" type="line"/>
      <point x="279" y="367" type="line"/>
      <point x="414" y="639" type="line"/>
      <point x="414" y="690" type="line"/>
      <point x="28" y="690" type="line"/>
      <point x="28" y="639" type="line"/>
      <point x="87" y="639" type="line"/>
    </contour>
  </outline>
</glyph>
<glyph name="endash" format="1">
  <advance width="416"/>
  <unicode hex="2013"/>
  <outline>
    <contour>
      <point x="45" y="260" type="line"/>
      <point x="371" y="260" type="line"/>
      <point x="371" y="308" type="line"/>
      <point x="45" y="308" type="line"/>
    </contour>
  </outline>
</glyph>
<glyph name="quotedblleft" format="1">
  <advance width="331"/>
  <unicode hex="201C"/>
  <outline>
    <contour>
      <point x="272" y="690" type="line"/>
      <point x="236" y="690" type="line"/>
      <point x="191" y="597" type="line"/>
      <point x="191" y="521" type="line"/>
      <point x="268" y="521" type="line"/>
      <point x="268" y="597" type="line"/>
      <point x="230" y="597" type="line"/>
    </contour>
    <contour>
      <point x="141" y="690" type="line"/>
      <point x="105" y="690" type="line"/>
      <point x="60" y="597" type="line"/>
      <point x="60" y="521" type="line"/>
      <point x="137" y="521" type="line"/>
      <point x="137" y="597" type="line"/>
      <point x="99" y="597" type="line"/>
    </contour>
  </outline>
</glyph>
<glyph name="dagger" format="1">
  <advance width="362"/>
  <unicode hex="2020"/>
  <outline>
    <contour>
      <point x="23" y="463" type="line"/>
      <point x="339" y="463" type="line"/>
      <point x="339" y="513" type="line"/>
      <point x="284" y="513" type="line"/>
      <point x="203" y="490" type="line"/>
      <point x="197" y="495" type="line"/>
      <point x="209" y="589" type="line"/>
      <point x="209" y="690" type="line"/>
      <point x="153" y="690" type="line"/>
      <point x="153" y="589" type="line"/>
      <point x="165" y="495" type="line"/>
      <point x="159" y="490" type="line"/>
      <point x="78" y="513" type="line"/>
      <point x="23" y="513" type="line"/>
    </contour>
    <contour>
      <point x="163" y="0" type="line"/>
      <point x="199" y="0" type="line"/>
      <point x="210" y="340" type="line"/>
      <point x="195" y="479" type="line"/>
      <point x="167" y="479" type="line"/>
      <point x="152" y="340" type="line"/>
    </contour>
  </outline>
</glyph>
<glyph name="daggerdbl" format="1">
  <advance width="408"/>
  <unicode hex="2021"/>
  <outline>
    <contour>
      <point x="46" y="463" type="line"/>
      <point x="361" y="463" type="line"/>
      <point x="361" y="513" type="line"/>
      <point x="306" y="513" type="line"/>
      <point x="225" y="491" type="line"/>
      <point x="219" y="495" type="line"/>
      <point x="231" y="589" type="line"/>
      <point x="231" y="690" type="line"/>
      <point x="176" y="690" type="line"/>
      <point x="176" y="589" type="line"/>
      <point x="188" y="495" type="line"/>
      <point x="182" y="491" type="line"/>
      <point x="101" y="513" type="line"/>
      <point x="46" y="513" type="line"/>
    </contour>
    <contour>
      <point x="176" y="0" type="line"/>
      <point x="231" y="0" type="line"/>
      <point x="231" y="101" type="line"/>
      <point x="219" y="195" type="line"/>
      <point x="225" y="199" type="line"/>
      <point x="306" y="177" type="line"/>
      <point x="361" y="177" type="line"/>
      <point x="361" y="227" type="line"/>
      <point x="46" y="227" type="line"/>
      <point x="46" y="177" type="line"/>
      <point x="101" y="177" type="line"/>
      <point x="182" y="199" type="line"/>
      <point x="188" y="195" type="line"/>
      <point x="176" y="101" type="line"/>
    </contour>
    <contour>
      <point x="170" y="311" type="line"/>
      <point x="237" y="311" type="line"/>
      <point x="237" y="379" type="line"/>
      <point x="170" y="379" type="line"/>
    </contour>
  </outline>
</glyph>
<glyph name="bullet" format="1">
  <advance width="329"/>
  <unicode hex="2022"/>
  <outline>
    <contour>
      <point x="70" y="193" type="line"/>
      <point x="259" y="193" type="line"/>
      <point x="259" y="375" type="line"/>
      <point x="70" y="375" type="line"/>
    </contour>
  </outline>
</glyph>
<glyph name="perthousand" format="1">
  <advance width="925"/>
  <unicode hex="2030"/>
  <outline>
    <contour>
      <point x="77" y="0" type="line"/>
      <point x="135" y="0" type="line"/>
      <point x="298" y="322" type="line"/>
      <point x="240" y="322" type="line"/>
    </contour>
    <contour>
      <point x="307" y="368" type="line"/>
      <point x="365" y="368" type="line"/>
      <point x="528" y="690" type="line"/>
      <point x="470" y="690" type="line"/>
    </contour>
    <contour>
      <point x="166" y="360" type="curve" smooth="yes"/>
      <point x="262" y="360"/>
      <point x="301" y="431"/>
      <point x="301" y="533" type="curve" smooth="yes"/>
      <point x="301" y="629"/>
      <point x="262" y="700"/>
      <point x="166" y="700" type="curve" smooth="yes"/>
      <point x="69" y="700"/>
      <point x="30" y="629"/>
      <point x="30" y="533" type="curve" smooth="yes"/>
      <point x="30" y="431"/>
      <point x="69" y="360"/>
    </contour>
    <contour>
      <point x="166" y="409" type="curve" smooth="yes"/>
      <point x="109" y="409"/>
      <point x="86" y="447"/>
      <point x="86" y="511" type="curve" smooth="yes"/>
      <point x="86" y="549" type="line" smooth="yes"/>
      <point x="86" y="613"/>
      <point x="109" y="651"/>
      <point x="166" y="651" type="curve" smooth="yes"/>
      <point x="222" y="651"/>
      <point x="245" y="613"/>
      <point x="245" y="549" type="curve" smooth="yes"/>
      <point x="245" y="511" type="line" smooth="yes"/>
      <point x="245" y="447"/>
      <point x="222" y="409"/>
    </contour>
    <contour>
      <point x="440" y="-10" type="curve" smooth="yes"/>
      <point x="537" y="-10"/>
      <point x="576" y="61"/>
      <point x="576" y="160" type="curve" smooth="yes"/>
      <point x="576" y="259"/>
      <point x="537" y="330"/>
      <point x="440" y="330" type="curve" smooth="yes"/>
      <point x="344" y="330"/>
      <point x="305" y="259"/>
      <point x="305" y="160" type="curve" smooth="yes"/>
      <point x="305" y="61"/>
      <point x="344" y="-10"/>
    </contour>
    <contour>
      <point x="440" y="39" type="curve" smooth="yes"/>
      <point x="383" y="39"/>
      <point x="361" y="77"/>
      <point x="361" y="141" type="curve" smooth="yes"/>
      <point x="361" y="179" type="line" smooth="yes"/>
      <point x="361" y="243"/>
      <point x="383" y="281"/>
      <point x="440" y="281" type="curve" smooth="yes"/>
      <point x="497" y="281"/>
      <point x="519" y="243"/>
      <point x="519" y="179" type="curve" smooth="yes"/>
      <point x="519" y="141" type="line" smooth="yes"/>
      <point x="519" y="77"/>
      <point x="497" y="39"/>
    </contour>
    <contour>
      <point x="764" y="-10" type="curve" smooth="yes"/>
      <point x="861" y="-10"/>
      <point x="899" y="61"/>
      <point x="899" y="160" type="curve" smooth="yes"/>
      <point x="899" y="259"/>
      <point x="861" y="330"/>
      <point x="764" y="330" type="curve" smooth="yes"/>
      <point x="667" y="330"/>
      <point x="629" y="259"/>
      <point x="629" y="160" type="curve" smooth="yes"/>
      <point x="629" y="61"/>
      <point x="667" y="-10"/>
    </contour>
    <contour>
      <point x="764" y="39" type="curve" smooth="yes"/>
      <point x="707" y="39"/>
      <point x="685" y="77"/>
      <point x="685" y="141" type="curve" smooth="yes"/>
      <point x="685" y="179" type="line" smooth="yes"/>
      <point x="685" y="243"/>
      <point x="707" y="281"/>
      <point x="764" y="281" type="curve" smooth="yes"/>
      <point x="821" y="281"/>
      <point x="843" y="243"/>
      <point x="843" y="179" type="curve" smooth="yes"/>
      <point x="843" y="141" type="line" smooth="yes"/>
      <point x="843" y="77"/>
      <point x="821" y="39"/>
    </contour>
  </outline>
</glyph>
<glyph name="guilsinglleft" format="1">
  <advance width="236"/>
  <unicode hex="2039"/>
  <outline>
    <contour>
      <point x="139" y="82" type="line"/>
      <point x="194" y="82" type="line"/>
      <point x="92" y="278" type="line"/>
      <point x="92" y="290" type="line"/>
      <point x="194" y="486" type="line"/>
      <point x="139" y="486" type="line"/>
      <point x="38" y="304" type="line"/>
      <point x="38" y="264" type="line"/>
    </contour>
  </outline>
</glyph>
<glyph name="euro" format="1">
  <advance width="495"/>
  <unicode hex="20AC"/>
  <outline>
    <contour>
      <point x="279" y="-10" type="curve" smooth="yes"/>
      <point x="386" y="-10"/>
      <point x="441" y="53"/>
      <point x="455" y="219" type="curve"/>
      <point x="395" y="219" type="line"/>
      <point x="395" y="208" type="line" smooth="yes"/>
      <point x="395" y="103"/>
      <point x="362" y="45"/>
      <point x="279" y="45" type="curve" smooth="yes"/>
      <point x="196" y="45"/>
      <point x="160" y="101"/>
      <point x="160" y="236" type="curve" smooth="yes"/>
      <point x="160" y="454" type="line" smooth="yes"/>
      <point x="160" y="589"/>
      <point x="196" y="645"/>
      <point x="279" y="645" type="curve" smooth="yes"/>
      <point x="361" y="645"/>
      <point x="395" y="588"/>
      <point x="395" y="485" type="curve" smooth="yes"/>
      <point x="395" y="485" type="line"/>
      <point x="453" y="485" type="line"/>
      <point x="438" y="640"/>
      <point x="383" y="700"/>
      <point x="279" y="700" type="curve" smooth="yes"/>
      <point x="151" y="700"/>
      <point x="96" y="611"/>
      <point x="96" y="345" type="curve" smooth="yes"/>
      <point x="96" y="79"/>
      <point x="151" y="-10"/>
    </contour>
    <contour>
      <point x="41" y="276" type="line"/>
      <point x="337" y="276" type="line"/>
      <point x="337" y="323" type="line"/>
      <point x="41" y="323" type="line"/>
    </contour>
    <contour>
      <point x="41" y="381" type="line"/>
      <point x="337" y="381" type="line"/>
      <point x="337" y="428" type="line"/>
      <point x="41" y="428" type="line"/>
    </contour>
  </outline>
</glyph>
<glyph name="Ohm" format="1">
  <advance width="498"/>
  <unicode hex="2126"/>
  <outline>
    <contour>
      <point x="54" y="0" type="line"/>
      <point x="210" y="0" type="line"/>
      <point x="210" y="75" type="line"/>
      <point x="159" y="135"/>
      <point x="116" y="202"/>
      <point x="116" y="322" type="curve" smooth="yes"/>
      <point x="116" y="426" type="line" smooth="yes"/>
      <point x="116" y="574"/>
      <point x="168" y="645"/>
      <point x="249" y="645" type="curve" smooth="yes"/>
      <point x="330" y="645"/>
      <point x="382" y="574"/>
      <point x="382" y="426" type="curve" smooth="yes"/>
      <point x="382" y="322" type="line" smooth="yes"/>
      <point x="382" y="202"/>
      <point x="339" y="135"/>
      <point x="288" y="75" type="curve"/>
      <point x="288" y="0" type="line"/>
      <point x="444" y="0" type="line"/>
      <point x="444" y="55" type="line"/>
      <point x="334" y="55" type="line"/>
      <point x="334" y="73" type="line"/>
      <point x="387" y="119"/>
      <point x="445" y="209"/>
      <point x="445" y="374" type="curve" smooth="yes"/>
      <point x="445" y="593"/>
      <point x="370" y="700"/>
      <point x="249" y="700" type="curve" smooth="yes"/>
      <point x="127" y="700"/>
      <point x="52" y="593"/>
      <point x="52" y="374" type="curve" smooth="yes"/>
      <point x="52" y="209"/>
      <point x="111" y="119"/>
      <point x="163" y="73" type="curve"/>
      <point x="163" y="55" type="line"/>
      <point x="54" y="55" type="line"/>
    </contour>
  </outline>
</glyph>
<glyph name="partialdiff" format="1">
  <advance width="427"/>
  <unicode hex="2202"/>
  <outline>
    <contour>
      <point x="214" y="-10" type="curve" smooth="yes"/>
      <point x="329" y="-10"/>
      <point x="382" y="72"/>
      <point x="382" y="264" type="curve" smooth="yes"/>
      <point x="382" y="496"/>
      <point x="296" y="668"/>
      <point x="97" y="700" type="curve"/>
      <point x="97" y="649" type="line"/>
      <point x="224" y="625"/>
      <point x="298" y="532"/>
      <point x="318" y="438" type="curve"/>
      <point x="300" y="438" type="line"/>
      <point x="283" y="477"/>
      <point x="249" y="504"/>
      <point x="193" y="504" type="curve" smooth="yes"/>
      <point x="94" y="504"/>
      <point x="45" y="420"/>
      <point x="45" y="247" type="curve" smooth="yes"/>
      <point x="45" y="74"/>
      <point x="98" y="-10"/>
    </contour>
    <contour>
      <point x="214" y="43" type="curve" smooth="yes"/>
      <point x="139" y="43"/>
      <point x="106" y="92"/>
      <point x="106" y="212" type="curve" smooth="yes"/>
      <point x="106" y="282" type="line" smooth="yes"/>
      <point x="106" y="402"/>
      <point x="138" y="451"/>
      <point x="213" y="451" type="curve" smooth="yes"/>
      <point x="289" y="451"/>
      <point x="321" y="402"/>
      <point x="321" y="282" type="curve" smooth="yes"/>
      <point x="321" y="212" type="line" smooth="yes"/>
      <point x="321" y="92"/>
      <point x="289" y="43"/>
    </contour>
  </outline>
</glyph>
<glyph name="product" format="1">
  <advance width="518"/>
  <unicode hex="220F"/>
  <outline>
    <contour>
      <point x="361" y="0" type="line"/>
      <point x="421" y="0" type="line"/>
      <point x="421" y="639" type="line"/>
      <point x="496" y="639" type="line"/>
      <point x="496" y="690" type="line"/>
      <point x="22" y="690" type="line"/>
      <point x="22" y="639" type="line"/>
      <point x="97" y="639" type="line"/>
      <point x="97" y="0" type="line"/>
      <point x="157" y="0" type="line"/>
      <point x="157" y="639" type="line"/>
      <point x="361" y="639" type="line"/>
    </contour>
  </outline>
</glyph>
<glyph name="summation" format="1">
  <advance width="399"/>
  <unicode hex="2211"/>
  <outline>
    <contour>
      <point x="40" y="0" type="line"/>
      <point x="362" y="0" type="line"/>
      <point x="362" y="51" type="line"/>
      <point x="100" y="51" type="line"/>
      <point x="245" y="345" type="line"/>
      <point x="108" y="639" type="line"/>
      <point x="350" y="639" type="line"/>
      <point x="350" y="690" type="line"/>
      <point x="48" y="690" type="line"/>
      <point x="48" y="639" type="line"/>
      <point x="185" y="345" type="line"/>
      <point x="40" y="51" type="line"/>
    </contour>
  </outline>
</glyph>
<glyph name="radical" format="1">
  <advance width="410"/>
  <unicode hex="221A"/>
  <outline>
    <contour>
      <point x="128" y="0" type="line"/>
      <point x="236" y="0" type="line"/>
      <point x="374" y="690" type="line"/>
      <point x="318" y="690" type="line"/>
      <point x="190" y="53" type="line"/>
      <point x="172" y="53" type="line"/>
      <point x="95" y="355" type="line"/>
      <point x="37" y="355" type="line"/>
    </contour>
  </outline>
</glyph>
<glyph name="infinity" format="1">
  <advance width="555"/>
  <unicode hex="221E"/>
  <outline>
    <contour>
      <point x="158" y="228" type="curve" smooth="yes"/>
      <point x="206" y="228"/>
      <point x="246" y="253"/>
      <point x="269" y="300" type="curve"/>
      <point x="285" y="300" type="line"/>
      <point x="309" y="253"/>
      <point x="348" y="228"/>
      <point x="396" y="228" type="curve" smooth="yes"/>
      <point x="458" y="228"/>
      <point x="497" y="269"/>
      <point x="497" y="337" type="curve" smooth="yes"/>
      <point x="497" y="405"/>
      <point x="458" y="446"/>
      <point x="396" y="446" type="curve" smooth="yes"/>
      <point x="348" y="446"/>
      <point x="310" y="421"/>
      <point x="285" y="374" type="curve"/>
      <point x="269" y="374" type="line"/>
      <point x="244" y="421"/>
      <point x="206" y="446"/>
      <point x="157" y="446" type="curve" smooth="yes"/>
      <point x="96" y="446"/>
      <point x="57" y="405"/>
      <point x="57" y="337" type="curve" smooth="yes"/>
      <point x="57" y="269"/>
      <point x="96" y="228"/>
    </contour>
    <contour>
      <point x="162" y="273" type="curve" smooth="yes"/>
      <point x="125" y="273"/>
      <point x="105" y="294"/>
      <point x="105" y="332" type="curve" smooth="yes"/>
      <point x="105" y="342" type="line" smooth="yes"/>
      <point x="105" y="380"/>
      <point x="125" y="401"/>
      <point x="162" y="401" type="curve" smooth="yes"/>
      <point x="198" y="401"/>
      <point x="229" y="380"/>
      <point x="258" y="337" type="curve"/>
      <point x="229" y="294"/>
      <point x="198" y="273"/>
    </contour>
    <contour>
      <point x="392" y="273" type="curve" smooth="yes"/>
      <point x="356" y="273"/>
      <point x="326" y="294"/>
      <point x="296" y="337" type="curve"/>
      <point x="326" y="380"/>
      <point x="356" y="401"/>
      <point x="392" y="401" type="curve" smooth="yes"/>
      <point x="429" y="401"/>
      <point x="450" y="380"/>
      <point x="450" y="342" type="curve" smooth="yes"/>
      <point x="450" y="332" type="line" smooth="yes"/>
      <point x="450" y="294"/>
      <point x="429" y="273"/>
    </contour>
  </outline>
</glyph>
<glyph name="notequal" format="1">
  <advance width="384"/>
  <unicode hex="2260"/>
  <outline>
    <contour>
      <point x="108" y="170" type="line"/>
      <point x="154" y="170" type="line"/>
      <point x="276" y="504" type="line"/>
      <point x="231" y="504" type="line"/>
    </contour>
    <contour>
      <point x="33" y="386" type="line"/>
      <point x="350" y="386" type="line"/>
      <point x="350" y="434" type="line"/>
      <point x="33" y="434" type="line"/>
    </contour>
    <contour>
      <point x="33" y="240" type="line"/>
      <point x="350" y="240" type="line"/>
      <point x="350" y="288" type="line"/>
      <point x="33" y="288" type="line"/>
    </contour>
  </outline>
</glyph>
<glyph name="lessequal" format="1">
  <advance width="384"/>
  <unicode hex="2264"/>
  <outline>
    <contour>
      <point x="349" y="180" type="line"/>
      <point x="349" y="233" type="line"/>
      <point x="85" y="339" type="line"/>
      <point x="85" y="357" type="line"/>
      <point x="349" y="464" type="line"/>
      <point x="349" y="517" type="line"/>
      <point x="31" y="384" type="line"/>
      <point x="31" y="313" type="line"/>
    </contour>
    <contour>
      <point x="31" y="62" type="line"/>
      <point x="349" y="62" type="line"/>
      <point x="349" y="111" type="line"/>
      <point x="31" y="111" type="line"/>
    </contour>
  </outline>
</glyph>
<glyph name="Aogonek.ss03" format="1">
  <advance width="434"/>
  <outline>
    <contour>
      <point x="27" y="0" type="line"/>
      <point x="87" y="0" type="line"/>
      <point x="207" y="635" type="line"/>
      <point x="225" y="635" type="line"/>
      <point x="344" y="0" type="line"/>
      <point x="406" y="0" type="line"/>
      <point x="273" y="690" type="line"/>
      <point x="160" y="690" type="line"/>
    </contour>
    <contour>
      <point x="91" y="189" type="line"/>
      <point x="341" y="189" type="line"/>
      <point x="336" y="237" type="line"/>
      <point x="95" y="237" type="line"/>
    </contour>
    <contour>
      <point x="361" y="-136" type="curve" smooth="yes"/>
      <point x="411" y="-136" type="line"/>
      <point x="411" y="-95" type="line"/>
      <point x="367" y="-95" type="line" smooth="yes"/>
      <point x="346" y="-95"/>
      <point x="334" y="-85"/>
      <point x="334" y="-68" type="curve" smooth="yes"/>
      <point x="334" y="-48"/>
      <point x="350" y="-28"/>
      <point x="406" y="0" type="curve"/>
      <point x="351" y="17" type="line"/>
      <point x="351" y="-13" type="line"/>
      <point x="308" y="-28"/>
      <point x="289" y="-48"/>
      <point x="289" y="-80" type="curve" smooth="yes"/>
      <point x="289" y="-116"/>
      <point x="314" y="-136"/>
    </contour>
    <contour>
      <point x="406" y="0" type="move" name="ogonek"/>
    </contour>
    <contour>
      <point x="216" y="690" type="move" name="top"/>
    </contour>
  </outline>
</glyph>
<glyph name="Eogonek.ss03" format="1">
  <advance width="422"/>
  <outline>
    <component base="E.ss03"/>
    <component base="ogonekcomb" xOffset="174"/>
    <contour>
      <point x="374" y="0" type="move" name="ogonek"/>
    </contour>
    <contour>
      <point x="213" y="690" type="move" name="top"/>
    </contour>
  </outline>
</glyph>
<glyph name="F.ss03" format="1">
  <advance width="408"/>
  <outline>
    <contour>
      <point x="72" y="0" type="line"/>
      <point x="131" y="0" type="line"/>
      <point x="131" y="328" type="line"/>
      <point x="298" y="328" type="line"/>
      <point x="298" y="376" type="line"/>
      <point x="131" y="376" type="line"/>
      <point x="131" y="639" type="line"/>
      <point x="319" y="639" type="line"/>
      <point x="319" y="494" type="line"/>
      <point x="371" y="494" type="line"/>
      <point x="371" y="690" type="line"/>
      <point x="72" y="690" type="line"/>
    </contour>
  </outline>
</glyph>
<glyph name="Germandbls.ss03" format="1">
  <advance width="456"/>
  <outline>
    <contour>
      <point x="74" y="0" type="line"/>
      <point x="133" y="0" type="line"/>
      <point x="133" y="639" type="line"/>
      <point x="334" y="639" type="line"/>
      <point x="209" y="386" type="line"/>
      <point x="209" y="337" type="line"/>
      <point x="253" y="337" type="line" smooth="yes"/>
      <point x="318" y="337"/>
      <point x="350" y="303"/>
      <point x="350" y="231" type="curve" smooth="yes"/>
      <point x="350" y="157" type="line" smooth="yes"/>
      <point x="350" y="85"/>
      <point x="318" y="51"/>
      <point x="253" y="51" type="curve" smooth="yes"/>
      <point x="188" y="51" type="line"/>
      <point x="188" y="0" type="line"/>
      <point x="257" y="0" type="line" smooth="yes"/>
      <point x="361" y="0"/>
      <point x="412" y="64"/>
      <point x="412" y="191" type="curve" smooth="yes"/>
      <point x="412" y="321"/>
      <point x="363" y="385"/>
      <point x="268" y="385" type="curve" smooth="yes"/>
      <point x="240" y="385" type="line"/>
      <point x="265" y="367" type="line"/>
      <point x="400" y="639" type="line"/>
      <point x="400" y="690" type="line"/>
      <point x="74" y="690" type="line"/>
    </contour>
  </outline>
</glyph>
<glyph name="K.ss03" format="1">
  <advance width="458"/>
  <outline>
    <contour>
      <point x="73" y="0" type="line"/>
      <point x="133" y="0" type="line"/>
      <point x="133" y="330" type="line"/>
      <point x="193" y="330" type="line"/>
      <point x="350" y="0" type="line"/>
      <point x="451" y="0" type="line"/>
      <point x="451" y="51" type="line"/>
      <point x="391" y="51" type="line"/>
      <point x="231" y="386" type="line"/>
      <point x="233" y="335" type="line"/>
      <point x="431" y="690" type="line"/>
      <point x="363" y="690" type="line"/>
      <point x="193" y="378" type="line"/>
      <point x="133" y="378" type="line"/>
      <point x="133" y="690" type="line"/>
      <point x="73" y="690" type="line"/>
    </contour>
  </outline>
</glyph>
<glyph name="M.ss04" format="1">
  <advance width="674"/>
  <outline>
    <contour>
      <point x="77" y="0" type="line"/>
      <point x="134" y="0" type="line"/>
      <point x="134" y="635" type="line"/>
      <point x="152" y="635" type="line"/>
      <point x="313" y="0" type="line"/>
      <point x="365" y="0" type="line"/>
      <point x="525" y="635" type="line"/>
      <point x="543" y="635" type="line"/>
      <point x="543" y="0" type="line"/>
      <point x="603" y="0" type="line"/>
      <point x="603" y="690" type="line"/>
      <point x="485" y="690" type="line"/>
      <point x="349" y="155" type="line"/>
      <point x="331" y="155" type="line"/>
      <point x="194" y="690" type="line"/>
      <point x="77" y="690" type="line"/>
    </contour>
    <contour>
      <point x="99" y="639" type="line"/>
      <point x="99" y="690" type="line"/>
      <point x="17" y="690" type="line"/>
      <point x="17" y="639" type="line"/>
    </contour>
  </outline>
</glyph>
<glyph name="P.ss03" format="1">
  <advance width="437"/>
  <outline>
    <contour>
      <point x="72" y="0" type="line"/>
      <point x="132" y="0" type="line"/>
      <point x="132" y="305" type="line"/>
      <point x="254" y="305" type="line" smooth="yes"/>
      <point x="354" y="305"/>
      <point x="403" y="365"/>
      <point x="403" y="497" type="curve" smooth="yes"/>
      <point x="403" y="629"/>
      <point x="354" y="690"/>
      <point x="252" y="690" type="curve" smooth="yes"/>
      <point x="72" y="690" type="line"/>
    </contour>
    <contour>
      <point x="248" y="354" type="curve" smooth="yes"/>
      <point x="132" y="354" type="line"/>
      <point x="132" y="639" type="line"/>
      <point x="248" y="639" type="line" smooth="yes"/>
      <point x="311" y="639"/>
      <point x="341" y="605"/>
      <point x="341" y="533" type="curve" smooth="yes"/>
      <point x="341" y="460" type="line" smooth="yes"/>
      <point x="341" y="389"/>
      <point x="311" y="354"/>
    </contour>
  </outline>
</glyph>
<glyph name="R.ss03" format="1">
  <advance width="461"/>
  <outline>
    <contour>
      <point x="71" y="0" type="line"/>
      <point x="131" y="0" type="line"/>
      <point x="131" y="325" type="line"/>
      <point x="235" y="325" type="line" smooth="yes"/>
      <point x="296" y="325"/>
      <point x="325" y="292"/>
      <point x="325" y="222" type="curve" smooth="yes"/>
      <point x="325" y="0" type="line"/>
      <point x="444" y="0" type="line"/>
      <point x="444" y="51" type="line"/>
      <point x="385" y="51" type="line"/>
      <point x="385" y="211" type="line" smooth="yes"/>
      <point x="385" y="294"/>
      <point x="361" y="333"/>
      <point x="307" y="340" type="curve"/>
      <point x="307" y="358" type="line"/>
      <point x="373" y="366"/>
      <point x="402" y="407"/>
      <point x="402" y="507" type="curve" smooth="yes"/>
      <point x="402" y="632"/>
      <point x="354" y="690"/>
      <point x="254" y="690" type="curve"/>
      <point x="71" y="690" type="line"/>
    </contour>
    <contour>
      <point x="249" y="374" type="curve" smooth="yes"/>
      <point x="131" y="374" type="line"/>
      <point x="131" y="639" type="line"/>
      <point x="249" y="639" type="line" smooth="yes"/>
      <point x="311" y="639"/>
      <point x="340" y="605"/>
      <point x="340" y="535" type="curve" smooth="yes"/>
      <point x="340" y="478" type="line" smooth="yes"/>
      <point x="340" y="408"/>
      <point x="311" y="374"/>
    </contour>
  </outline>
</glyph>
<glyph name="a.ss01" format="1">
  <advance width="444"/>
  <outline>
    <contour>
      <point x="189" y="-10" type="curve" smooth="yes"/>
      <point x="246" y="-10"/>
      <point x="281" y="17"/>
      <point x="302" y="76" type="curve"/>
      <point x="320" y="76" type="line"/>
      <point x="320" y="45" type="line" smooth="yes"/>
      <point x="320" y="15"/>
      <point x="336" y="0"/>
      <point x="365" y="0" type="curve" smooth="yes"/>
      <point x="419" y="0" type="line"/>
      <point x="419" y="49" type="line"/>
      <point x="366" y="49" type="line"/>
      <point x="366" y="485" type="line"/>
      <point x="419" y="485" type="line"/>
      <point x="419" y="534" type="line"/>
      <point x="320" y="534" type="line"/>
      <point x="320" y="458" type="line"/>
      <point x="302" y="458" type="line"/>
      <point x="281" y="517"/>
      <point x="246" y="544"/>
      <point x="189" y="544" type="curve" smooth="yes"/>
      <point x="90" y="544"/>
      <point x="43" y="461"/>
      <point x="43" y="267" type="curve" smooth="yes"/>
      <point x="43" y="73"/>
      <point x="90" y="-10"/>
    </contour>
    <contour>
      <point x="207" y="43" type="curve" smooth="yes"/>
      <point x="134" y="43"/>
      <point x="105" y="92"/>
      <point x="105" y="213" type="curve" smooth="yes"/>
      <point x="105" y="321" type="line" smooth="yes"/>
      <point x="105" y="442"/>
      <point x="134" y="491"/>
      <point x="207" y="491" type="curve" smooth="yes"/>
      <point x="279" y="491"/>
      <point x="308" y="442"/>
      <point x="308" y="321" type="curve" smooth="yes"/>
      <point x="308" y="213" type="line" smooth="yes"/>
      <point x="308" y="92"/>
      <point x="279" y="43"/>
    </contour>
    <contour>
      <point x="419" y="0" type="move" name="ogonek"/>
    </contour>
    <contour>
      <point x="207" y="534" type="move" name="top"/>
    </contour>
  </outline>
</glyph>
<glyph name="dieresiscomb.case" format="1">
  <advance width="0"/>
  <outline>
    <component base="dieresiscomb" yOffset="116" identifier="AADC216E"/>
    <contour>
      <point x="200" y="650" type="move" name="_top"/>
    </contour>
  </outline>
</glyph>
<glyph name="exclamdown.case" format="1">
  <advance width="204"/>
  <outline>
    <contour>
      <point x="119" y="528" type="line"/>
      <point x="84" y="528" type="line"/>
      <point x="70" y="51" type="line"/>
      <point x="70" y="0" type="line"/>
      <point x="133" y="0" type="line"/>
      <point x="133" y="51" type="line"/>
    </contour>
    <contour>
      <point x="140" y="690" type="line"/>
      <point x="63" y="690" type="line"/>
      <point x="63" y="614" type="line"/>
      <point x="140" y="614" type="line"/>
    </contour>
  </outline>
</glyph>
<glyph name="f_f_i" format="1">
  <advance width="751"/>
  <outline>
    <contour>
      <point x="93" y="645" type="curve" smooth="yes"/>
      <point x="93" y="0" type="line"/>
      <point x="150" y="0" type="line"/>
      <point x="150" y="641" type="line"/>
      <point x="253" y="641" type="line"/>
      <point x="253" y="690" type="line"/>
      <point x="137" y="690" type="line" smooth="yes"/>
      <point x="108" y="690"/>
      <point x="93" y="675"/>
    </contour>
    <contour>
      <point x="28" y="0" type="line"/>
      <point x="240" y="0" type="line"/>
      <point x="240" y="49" type="line"/>
      <point x="28" y="49" type="line"/>
    </contour>
    <contour>
      <point x="23" y="485" type="line"/>
      <point x="253" y="485" type="line"/>
      <point x="253" y="534" type="line"/>
      <point x="23" y="534" type="line"/>
    </contour>
    <contour>
      <point x="365" y="645" type="curve" smooth="yes"/>
      <point x="365" y="0" type="line"/>
      <point x="422" y="0" type="line"/>
      <point x="422" y="641" type="line"/>
      <point x="525" y="641" type="line"/>
      <point x="525" y="690" type="line"/>
      <point x="409" y="690" type="line" smooth="yes"/>
      <point x="380" y="690"/>
      <point x="365" y="675"/>
    </contour>
    <contour>
      <point x="300" y="0" type="line"/>
      <point x="512" y="0" type="line"/>
      <point x="512" y="49" type="line"/>
      <point x="300" y="49" type="line"/>
    </contour>
    <contour>
      <point x="295" y="485" type="line"/>
      <point x="525" y="485" type="line"/>
      <point x="525" y="534" type="line"/>
      <point x="295" y="534" type="line"/>
    </contour>
    <contour>
      <point x="625" y="0" type="line"/>
      <point x="683" y="0" type="line"/>
      <point x="683" y="534" type="line"/>
      <point x="562" y="534" type="line"/>
      <point x="562" y="485" type="line"/>
      <point x="625" y="485" type="line"/>
    </contour>
    <contour>
      <point x="614" y="617" type="line"/>
      <point x="689" y="617" type="line"/>
      <point x="689" y="690" type="line"/>
      <point x="614" y="690" type="line"/>
    </contour>
    <contour>
      <point x="503" y="534" type="line"/>
      <point x="503" y="485" type="line"/>
      <point x="586" y="485" type="line"/>
      <point x="586" y="534" type="line"/>
    </contour>
    <contour>
      <point x="192" y="485" type="line"/>
      <point x="357" y="485" type="line"/>
      <point x="357" y="534" type="line"/>
      <point x="192" y="534" type="line"/>
    </contour>
  </outline>
</glyph>
<glyph name="f_h" format="1">
  <advance width="707"/>
  <outline>
    <contour>
      <point x="93" y="645" type="curve" smooth="yes"/>
      <point x="93" y="0" type="line"/>
      <point x="150" y="0" type="line"/>
      <point x="150" y="641" type="line"/>
      <point x="253" y="641" type="line"/>
      <point x="253" y="690" type="line"/>
      <point x="137" y="690" type="line" smooth="yes"/>
      <point x="108" y="690"/>
      <point x="93" y="675"/>
    </contour>
    <contour>
      <point x="28" y="0" type="line"/>
      <point x="240" y="0" type="line"/>
      <point x="240" y="49" type="line"/>
      <point x="28" y="49" type="line"/>
    </contour>
    <contour>
      <point x="23" y="485" type="line"/>
      <point x="253" y="485" type="line"/>
      <point x="253" y="534" type="line"/>
      <point x="23" y="534" type="line"/>
    </contour>
    <contour>
      <point x="337" y="0" type="line"/>
      <point x="395" y="0" type="line"/>
      <point x="395" y="353" type="line" smooth="yes"/>
      <point x="395" y="452"/>
      <point x="422" y="491"/>
      <point x="488" y="491" type="curve" smooth="yes"/>
      <point x="554" y="491"/>
      <point x="580" y="452"/>
      <point x="580" y="353" type="curve" smooth="yes"/>
      <point x="580" y="0" type="line"/>
      <point x="691" y="0" type="line"/>
      <point x="691" y="49" type="line"/>
      <point x="638" y="49" type="line"/>
      <point x="638" y="365" type="line" smooth="yes"/>
      <point x="638" y="487"/>
      <point x="597" y="544"/>
      <point x="512" y="544" type="curve" smooth="yes"/>
      <point x="456" y="544"/>
      <point x="421" y="518"/>
      <point x="403" y="467" type="curve"/>
      <point x="385" y="467" type="line"/>
      <point x="392" y="530"/>
      <point x="395" y="562"/>
      <point x="395" y="593" type="curve" smooth="yes"/>
      <point x="395" y="690" type="line"/>
      <point x="285" y="690" type="line"/>
      <point x="285" y="641" type="line"/>
      <point x="337" y="641" type="line"/>
    </contour>
    <contour>
      <point x="228" y="690" type="line"/>
      <point x="228" y="641" type="line"/>
      <point x="312" y="641" type="line"/>
      <point x="312" y="690" type="line"/>
    </contour>
  </outline>
</glyph>
<glyph name="gravecomb.case" format="1">
  <advance width="0"/>
  <note>
grave
</note>
  <outline>
    <component base="gravecomb" yOffset="116" identifier="5AF4083B"/>
    <contour>
      <point x="200" y="650" type="move" name="_top"/>
    </contour>
  </outline>
</glyph>
<glyph name="mozilla_symbol" format="1">
  <advance width="1150"/>
  <outline>
    <contour>
      <point x="246" y="1110" type="line"/>
      <point x="104" y="1110" type="line"/>
      <point x="104" y="0" type="line"/>
      <point x="246" y="0" type="line"/>
    </contour>
    <contour>
      <point x="490" y="858" type="line"/>
      <point x="490" y="986" type="line"/>
      <point x="362" y="986" type="line"/>
      <point x="362" y="858" type="line"/>
    </contour>
    <contour>
      <point x="490" y="1110" type="line"/>
      <point x="490" y="986" type="line"/>
      <point x="924" y="986" type="line"/>
      <point x="924" y="954" type="line"/>
      <point x="558" y="821" type="line"/>
      <point x="558" y="709" type="line"/>
      <point x="924" y="576" type="line"/>
      <point x="924" y="544" type="line"/>
      <point x="362" y="544" type="line"/>
      <point x="362" y="420" type="line"/>
      <point x="1052" y="420" type="line"/>
      <point x="1052" y="646" type="line"/>
      <point x="754" y="749" type="line"/>
      <point x="754" y="781" type="line"/>
      <point x="1052" y="884" type="line"/>
      <point x="1052" y="1110" type="line"/>
    </contour>
  </outline>
</glyph>
<glyph name="t_t" format="1">
  <advance width="526"/>
  <outline>
    <contour>
      <point x="130" y="0" type="curve" smooth="yes"/>
      <point x="237" y="0" type="line"/>
      <point x="237" y="49" type="line"/>
      <point x="143" y="49" type="line"/>
      <point x="143" y="634" type="line"/>
      <point x="109" y="634" type="line"/>
      <point x="85" y="534" type="line"/>
      <point x="85" y="45" type="line" smooth="yes"/>
      <point x="85" y="15"/>
      <point x="100" y="0"/>
    </contour>
    <contour>
      <point x="11" y="485" type="line"/>
      <point x="237" y="485" type="line"/>
      <point x="237" y="534" type="line"/>
      <point x="11" y="534" type="line"/>
    </contour>
    <contour>
      <point x="393" y="0" type="curve" smooth="yes"/>
      <point x="500" y="0" type="line"/>
      <point x="500" y="49" type="line"/>
      <point x="405" y="49" type="line"/>
      <point x="405" y="634" type="line"/>
      <point x="372" y="634" type="line"/>
      <point x="348" y="534" type="line"/>
      <point x="348" y="45" type="line" smooth="yes"/>
      <point x="348" y="15"/>
      <point x="363" y="0"/>
    </contour>
    <contour>
      <point x="274" y="485" type="line"/>
      <point x="500" y="485" type="line"/>
      <point x="500" y="534" type="line"/>
      <point x="274" y="534" type="line"/>
    </contour>
    <contour>
      <point x="126" y="534" type="line"/>
      <point x="126" y="485" type="line"/>
      <point x="360" y="485" type="line"/>
      <point x="360" y="534" type="line"/>
    </contour>
  </outline>
</glyph>
<glyph name="zero.zero" format="1">
  <advance width="468"/>
  <outline>
    <contour>
      <point x="234" y="-10" type="curve" smooth="yes"/>
      <point x="366" y="-10"/>
      <point x="417" y="77"/>
      <point x="417" y="345" type="curve" smooth="yes"/>
      <point x="417" y="613"/>
      <point x="366" y="700"/>
      <point x="234" y="700" type="curve" smooth="yes"/>
      <point x="102" y="700"/>
      <point x="51" y="613"/>
      <point x="51" y="345" type="curve" smooth="yes"/>
      <point x="51" y="77"/>
      <point x="102" y="-10"/>
    </contour>
    <contour>
      <point x="234" y="45" type="curve" smooth="yes"/>
      <point x="151" y="45"/>
      <point x="115" y="99"/>
      <point x="115" y="232" type="curve" smooth="yes"/>
      <point x="115" y="458" type="line" smooth="yes"/>
      <point x="115" y="591"/>
      <point x="151" y="645"/>
      <point x="234" y="645" type="curve" smooth="yes"/>
      <point x="317" y="645"/>
      <point x="353" y="591"/>
      <point x="353" y="458" type="curve" smooth="yes"/>
      <point x="353" y="232" type="line" smooth="yes"/>
      <point x="353" y="99"/>
      <point x="317" y="45"/>
    </contour>
  </outline>
</glyph>
